<svg width="58" height="50" viewBox="0 0 58 50" fill="none" xmlns="http://www.w3.org/2000/svg">
<g clip-path="url(#clip0)">
<path d="M57.0701 15.2275H0.92986C0.406814 15.2275 0 15.6359 0 16.161V33.6348C0 34.1599 0.406814 34.5683 0.92986 34.5683H57.0701C57.5932 34.5683 58 34.1599 58 33.6348V16.161C58 15.6359 57.5932 15.2275 57.0701 15.2275ZM56.1403 32.7013H1.85972V17.0945H56.1403V32.7013Z" fill="#3F86A3"/>
<path d="M52.1883 37.077C51.6653 37.077 51.2585 37.4854 51.2585 38.0105V41.5986H6.77049V38.0105C6.77049 37.4854 6.36367 37.077 5.84063 37.077C5.31758 37.077 4.91077 37.4854 4.91077 38.0105V42.5321C4.91077 43.0572 5.31758 43.4656 5.84063 43.4656H52.1883C52.7114 43.4656 53.1182 43.0572 53.1182 42.5321V38.0105C53.1182 37.5146 52.6823 37.077 52.1883 37.077Z" fill="#3F86A3"/>
<path d="M48.3236 44.7491C47.8006 44.7491 47.3938 45.1575 47.3938 45.6826V48.1622H10.6062V45.6826C10.6062 45.1575 10.1994 44.7491 9.67632 44.7491C9.15327 44.7491 8.74646 45.1575 8.74646 45.6826V49.0957C8.74646 49.6208 9.15327 50.0292 9.67632 50.0292H48.3236C48.8467 50.0292 49.2535 49.6208 49.2535 49.0957V45.6826C49.2535 45.1575 48.8467 44.7491 48.3236 44.7491Z" fill="#3F86A3"/>
<path d="M5.84063 12.923C6.36367 12.923 6.77049 12.5146 6.77049 11.9895V8.4014H51.2585V11.9895C51.2585 12.5146 51.6653 12.923 52.1883 12.923C52.7114 12.923 53.1182 12.5146 53.1182 11.9895V7.46791C53.1182 6.94283 52.7114 6.53442 52.1883 6.53442H5.84063C5.31758 6.53442 4.91077 6.94283 4.91077 7.46791V11.9895C4.91077 12.5146 5.31758 12.923 5.84063 12.923Z" fill="#3F86A3"/>
<path d="M9.67632 5.28005C10.1994 5.28005 10.6062 4.87165 10.6062 4.34656V1.86698H47.3938V4.34656C47.3938 4.87165 47.8006 5.28005 48.3236 5.28005C48.8467 5.28005 49.2535 4.87165 49.2535 4.34656V0.933489C49.2535 0.408401 48.8467 0 48.3236 0H9.67632C9.15327 0 8.74646 0.408401 8.74646 0.933489V4.34656C8.74646 4.84247 9.18233 5.28005 9.67632 5.28005Z" fill="#3F86A3"/>
<path d="M4.82366 30.8635H14.8487C15.3718 30.8635 15.7786 30.4551 15.7786 29.93V19.8658C15.7786 19.3407 15.3718 18.9323 14.8487 18.9323H4.82366C4.30061 18.9323 3.8938 19.3407 3.8938 19.8658V29.93C3.8938 30.4551 4.30061 30.8635 4.82366 30.8635ZM5.75352 20.7993H13.9188V28.9965H5.75352V20.7993Z" fill="#3F86A3"/>
<path d="M19.3237 22.112H52.1884C52.7114 22.112 53.1182 21.7036 53.1182 21.1785C53.1182 20.6535 52.7114 20.2451 52.1884 20.2451H19.3237C18.8006 20.2451 18.3938 20.6535 18.3938 21.1785C18.3938 21.7036 18.8297 22.112 19.3237 22.112Z" fill="#3F86A3"/>
<path d="M19.3237 25.846H47.1032C47.6263 25.846 48.0331 25.4376 48.0331 24.9125C48.0331 24.3874 47.6263 23.979 47.1032 23.979H19.3237C18.8006 23.979 18.3938 24.3874 18.3938 24.9125C18.3938 25.4084 18.8297 25.846 19.3237 25.846Z" fill="#3F86A3"/>
<path d="M19.3237 30.0758H30.1042C30.6273 30.0758 31.0341 29.6674 31.0341 29.1424C31.0341 28.6173 30.6273 28.2089 30.1042 28.2089H19.3237C18.8006 28.2089 18.3938 28.6173 18.3938 29.1424C18.3938 29.6674 18.8297 30.0758 19.3237 30.0758Z" fill="#3F86A3"/>
</g>
<defs>
<clipPath id="clip0">
<rect width="58" height="50" fill="white"/>
</clipPath>
</defs>
</svg>
