<svg width="20" height="20" viewBox="0 0 20 20" fill="none" xmlns="http://www.w3.org/2000/svg">
<g opacity="0.6">
<path d="M17.0312 17.6562C17.3548 17.6562 17.6172 17.3939 17.6172 17.0703V1.83594C17.6172 1.51234 17.3548 1.25 17.0312 1.25H11.4861C11.0924 0.507305 10.3115 0 9.41406 0H7.65625C7.33266 0 7.07031 0.262344 7.07031 0.585938V1.25H4.14062C3.17137 1.25 2.38281 2.03855 2.38281 3.00781V18.2422C2.38281 19.2114 3.17137 20 4.14062 20H17.0312C17.3548 20 17.6172 19.7377 17.6172 19.4141C17.6172 19.0905 17.3548 18.8281 17.0312 18.8281H16.4453V17.6562H17.0312ZM16.4453 16.4844H11.4425C11.6426 16.1393 11.7578 15.7393 11.7578 15.3125V14.1406H14.6875C15.0111 14.1406 15.2734 13.8783 15.2734 13.5547C15.2734 13.2311 15.0111 12.9688 14.6875 12.9688H11.7578V11.7969H14.6875C15.0111 11.7969 15.2734 11.5345 15.2734 11.2109C15.2734 10.8873 15.0111 10.625 14.6875 10.625H11.7578V9.45312H14.6875C15.0111 9.45312 15.2734 9.19078 15.2734 8.86719C15.2734 8.54359 15.0111 8.28125 14.6875 8.28125H11.7578V7.10938H14.6875C15.0111 7.10938 15.2734 6.84703 15.2734 6.52344V4.17969C15.2734 3.85609 15.0111 3.59375 14.6875 3.59375H11.7578V2.42188H16.4453V16.4844ZM11.7578 4.76562H14.1016V5.9375H11.7578V4.76562ZM8.24219 1.17188H9.41406C10.1541 1.17188 10.5859 1.80844 10.5859 2.34375V13.2841C10.2409 13.0839 9.84082 12.9688 9.41406 12.9688H8.24219V1.17188ZM4.14062 2.42188H7.07031V13.5547C7.07031 13.8783 7.33266 14.1406 7.65625 14.1406H9.41406C10.0602 14.1406 10.5859 14.6663 10.5859 15.3125C10.5859 15.9587 10.0602 16.4844 9.41406 16.4844H4.14062C3.93523 16.4844 3.73809 16.5201 3.55469 16.5852V3.00781C3.55469 2.68473 3.81754 2.42188 4.14062 2.42188ZM15.2734 18.8281H4.14062C3.81754 18.8281 3.55469 18.5653 3.55469 18.2422C3.55469 17.9191 3.81754 17.6562 4.14062 17.6562H15.2734V18.8281Z" fill="#3F86A3"/>
</g>
</svg>
