<svg width="22" height="22" viewBox="0 0 22 22" fill="none" xmlns="http://www.w3.org/2000/svg">
<path fill-rule="evenodd" clip-rule="evenodd" d="M5.66667 2.81818C5.17575 2.81818 4.77778 3.2252 4.77778 3.72727V18.2727C4.77778 18.7748 5.17575 19.1818 5.66667 19.1818H16.3333C16.8243 19.1818 17.2222 18.7748 17.2222 18.2727V3.72727C17.2222 3.2252 16.8243 2.81818 16.3333 2.81818H5.66667ZM3 3.72727C3 2.22104 4.19391 1 5.66667 1H16.3333C17.8061 1 19 2.22104 19 3.72727V18.2727C19 19.779 17.8061 21 16.3333 21H5.66667C4.19391 21 3 19.779 3 18.2727V3.72727Z" fill="#587175"/>
<path fill-rule="evenodd" clip-rule="evenodd" d="M7.44458 16.4545C7.44458 15.9524 7.84255 15.5454 8.33347 15.5454H13.6668C14.1577 15.5454 14.5557 15.9524 14.5557 16.4545V20.0909C14.5557 20.5929 14.1577 21 13.6668 21C13.1759 21 12.7779 20.5929 12.7779 20.0909V17.3636H9.22236V20.0909C9.22236 20.5929 8.82439 21 8.33347 21C7.84255 21 7.44458 20.5929 7.44458 20.0909V16.4545Z" fill="#587175"/>
<path fill-rule="evenodd" clip-rule="evenodd" d="M6.55542 5.54532C6.55542 5.04324 6.95339 4.63623 7.44431 4.63623H7.4532C7.94412 4.63623 8.34209 5.04324 8.34209 5.54532C8.34209 6.0474 7.94412 6.45441 7.4532 6.45441H7.44431C6.95339 6.45441 6.55542 6.0474 6.55542 5.54532Z" fill="#587175"/>
<path fill-rule="evenodd" clip-rule="evenodd" d="M13.6667 5.54532C13.6667 5.04324 14.0647 4.63623 14.5556 4.63623H14.5645C15.0554 4.63623 15.4534 5.04324 15.4534 5.54532C15.4534 6.0474 15.0554 6.45441 14.5645 6.45441H14.5556C14.0647 6.45441 13.6667 6.0474 13.6667 5.54532Z" fill="#587175"/>
<path fill-rule="evenodd" clip-rule="evenodd" d="M10.1111 5.54532C10.1111 5.04324 10.5091 4.63623 11 4.63623H11.0089C11.4998 4.63623 11.8977 5.04324 11.8977 5.54532C11.8977 6.0474 11.4998 6.45441 11.0089 6.45441H11C10.5091 6.45441 10.1111 6.0474 10.1111 5.54532Z" fill="#587175"/>
<path fill-rule="evenodd" clip-rule="evenodd" d="M10.1111 9.1818C10.1111 8.67972 10.5091 8.27271 11 8.27271H11.0089C11.4998 8.27271 11.8977 8.67972 11.8977 9.1818C11.8977 9.68387 11.4998 10.0909 11.0089 10.0909H11C10.5091 10.0909 10.1111 9.68387 10.1111 9.1818Z" fill="#587175"/>
<path fill-rule="evenodd" clip-rule="evenodd" d="M10.1111 12.8181C10.1111 12.3161 10.5091 11.9091 11 11.9091H11.0089C11.4998 11.9091 11.8977 12.3161 11.8977 12.8181C11.8977 13.3202 11.4998 13.7272 11.0089 13.7272H11C10.5091 13.7272 10.1111 13.3202 10.1111 12.8181Z" fill="#587175"/>
<path fill-rule="evenodd" clip-rule="evenodd" d="M13.6667 9.1818C13.6667 8.67972 14.0647 8.27271 14.5556 8.27271H14.5645C15.0554 8.27271 15.4534 8.67972 15.4534 9.1818C15.4534 9.68387 15.0554 10.0909 14.5645 10.0909H14.5556C14.0647 10.0909 13.6667 9.68387 13.6667 9.1818Z" fill="#587175"/>
<path fill-rule="evenodd" clip-rule="evenodd" d="M13.6667 12.8181C13.6667 12.3161 14.0647 11.9091 14.5556 11.9091H14.5645C15.0554 11.9091 15.4534 12.3161 15.4534 12.8181C15.4534 13.3202 15.0554 13.7272 14.5645 13.7272H14.5556C14.0647 13.7272 13.6667 13.3202 13.6667 12.8181Z" fill="#587175"/>
<path fill-rule="evenodd" clip-rule="evenodd" d="M6.55542 9.1818C6.55542 8.67972 6.95339 8.27271 7.44431 8.27271H7.4532C7.94412 8.27271 8.34209 8.67972 8.34209 9.1818C8.34209 9.68387 7.94412 10.0909 7.4532 10.0909H7.44431C6.95339 10.0909 6.55542 9.68387 6.55542 9.1818Z" fill="#587175"/>
<path fill-rule="evenodd" clip-rule="evenodd" d="M6.55542 12.8181C6.55542 12.3161 6.95339 11.9091 7.44431 11.9091H7.4532C7.94412 11.9091 8.34209 12.3161 8.34209 12.8181C8.34209 13.3202 7.94412 13.7272 7.4532 13.7272H7.44431C6.95339 13.7272 6.55542 13.3202 6.55542 12.8181Z" fill="#587175"/>
</svg>
