<svg width="22" height="22" viewBox="0 0 22 22" fill="none" xmlns="http://www.w3.org/2000/svg">
<path fill-rule="evenodd" clip-rule="evenodd" d="M5.5 4.58333C4.99793 4.58333 4.58333 4.99793 4.58333 5.5C4.58333 5.74312 4.67991 5.97627 4.85182 6.14818C5.02373 6.32009 5.25688 6.41667 5.5 6.41667H15.5833V4.58333H5.5ZM17.4167 6.41667V3.66667C17.4167 3.16041 17.0063 2.75 16.5 2.75H5.5C3.98541 2.75 2.75 3.98541 2.75 5.5C2.75 6.22935 3.03973 6.92882 3.55546 7.44454C4.07118 7.96027 4.77065 8.25 5.5 8.25H17.4167V11C17.4167 11.5063 17.8271 11.9167 18.3333 11.9167C18.8396 11.9167 19.25 11.5063 19.25 11V7.33333C19.25 6.82707 18.8396 6.41667 18.3333 6.41667H17.4167Z" fill="#587175"/>
<path fill-rule="evenodd" clip-rule="evenodd" d="M3.66667 4.58337C4.17293 4.58337 4.58333 4.99378 4.58333 5.50004V16.5C4.58333 17.0021 4.99793 17.4167 5.5 17.4167H17.4167V14.6667C17.4167 14.1604 17.8271 13.75 18.3333 13.75C18.8396 13.75 19.25 14.1604 19.25 14.6667V18.3334C19.25 18.8396 18.8396 19.25 18.3333 19.25H5.5C3.98541 19.25 2.75 18.0146 2.75 16.5V5.50004C2.75 4.99378 3.16041 4.58337 3.66667 4.58337Z" fill="#587175"/>
<path fill-rule="evenodd" clip-rule="evenodd" d="M14.5555 10.8888C15.0712 10.3731 15.7707 10.0834 16.5 10.0834H20.1667C20.6729 10.0834 21.0833 10.4938 21.0833 11V14.6667C21.0833 15.173 20.6729 15.5834 20.1667 15.5834H16.5C14.9854 15.5834 13.75 14.348 13.75 12.8334C13.75 12.104 14.0397 11.4046 14.5555 10.8888ZM16.5 11.9167C16.2569 11.9167 16.0237 12.0133 15.8518 12.1852C15.6799 12.3571 15.5833 12.5903 15.5833 12.8334C15.5833 13.3354 15.9979 13.75 16.5 13.75H19.25V11.9167H16.5Z" fill="#587175"/>
</svg>
