<svg width="48" height="50" viewBox="0 0 48 50" fill="none" xmlns="http://www.w3.org/2000/svg">
<g clip-path="url(#clip0)">
<path d="M48 14.5217C48 14.3738 47.9506 14.2258 47.8765 14.1026V4.68442C47.8765 4.24063 47.5059 3.87081 47.0612 3.87081H40.5147V0.813609C40.5147 0.369822 40.1441 0 39.6994 0C39.2548 0 38.8842 0.369822 38.8842 0.813609V3.87081H29.966V0.813609C29.966 0.369822 29.5955 0 29.1508 0C28.7061 0 28.3356 0.369822 28.3356 0.813609V3.87081H19.5903V0.813609C19.5903 0.369822 19.2198 0 18.7751 0C18.3304 0 17.9599 0.369822 17.9599 0.813609V3.87081H8.94287V0.813609C8.94287 0.369822 8.59702 0 8.15234 0C7.70767 0 7.33711 0.369822 7.33711 0.813609V3.87081H0.815234C0.370561 3.87081 0 4.24063 0 4.68442V41.6667C0 42.1105 0.370561 42.4803 0.815234 42.4803H28.632C29.0767 42.4803 29.4472 42.1105 29.4472 41.6667C29.4472 41.2229 29.0767 40.8531 28.632 40.8531H1.60576V15.3353H46.246V23.5947C46.246 24.0385 46.6166 24.4083 47.0612 24.4083C47.5059 24.4083 47.8765 24.0385 47.8765 23.5947V14.9408C47.9506 14.8176 48 14.6696 48 14.5217ZM1.60576 13.7081V5.47337H7.33711V7.02663C7.33711 7.47041 7.70767 7.84024 8.15234 7.84024C8.59702 7.84024 8.96758 7.47041 8.96758 7.02663V5.47337H17.9846V7.02663C17.9846 7.47041 18.3551 7.84024 18.7998 7.84024C19.2445 7.84024 19.615 7.47041 19.615 7.02663V5.47337H28.4097V7.02663C28.4097 7.47041 28.7802 7.84024 29.2249 7.84024C29.6696 7.84024 30.0401 7.47041 30.0401 7.02663V5.47337H38.9583V7.02663C38.9583 7.47041 39.3289 7.84024 39.7735 7.84024C40.2182 7.84024 40.5888 7.47041 40.5888 7.02663V5.47337H46.3201V13.7081H1.60576Z" fill="#3F86A3"/>
<path d="M31.8189 22.929H29.1756V17.8501C29.1756 17.4063 28.805 17.0365 28.3603 17.0365C27.9156 17.0365 27.5451 17.4063 27.5451 17.8501V22.929H20.3809V17.8501C20.3809 17.4063 20.0103 17.0365 19.5657 17.0365C19.121 17.0365 18.7504 17.4063 18.7504 17.8501V22.929H11.6851V17.8501C11.6851 17.4063 11.3145 17.0365 10.8698 17.0365C10.4252 17.0365 10.0546 17.4063 10.0546 17.8501V22.929H4.86675C4.42208 22.929 4.05151 23.2988 4.05151 23.7426C4.05151 24.1864 4.42208 24.5562 4.86675 24.5562H10.0793V30.8678H4.86675C4.42208 30.8678 4.05151 31.2376 4.05151 31.6814C4.05151 32.1252 4.42208 32.495 4.86675 32.495H10.0793V38.215C10.0793 38.6588 10.4499 39.0286 10.8945 39.0286C11.3392 39.0286 11.7098 38.6588 11.7098 38.215V32.4704H18.7751V38.215C18.7751 38.6588 19.1457 39.0286 19.5904 39.0286C20.035 39.0286 20.4056 38.6588 20.4056 38.215V32.4704H27.5945V38.215C27.5945 38.6588 27.9651 39.0286 28.4097 39.0286C28.8544 39.0286 29.225 38.6588 29.225 38.215V24.5562H31.8683C32.313 24.5562 32.6835 24.1864 32.6835 23.7426C32.6341 23.2988 32.2636 22.929 31.8189 22.929ZM11.6851 30.8678V24.5562H18.7751V30.8678H11.6851ZM27.5945 30.8678H20.3809V24.5562H27.5698V30.8678H27.5945Z" fill="#3F86A3"/>
<path d="M41.009 33.7032C38.3409 32.5937 38.3409 32.1992 38.3409 31.8294C38.3409 30.9665 39.4279 30.8679 39.8726 30.8679C41.4042 30.8679 42.343 31.4103 42.7876 31.6568C43.1829 31.8787 43.6523 31.928 44.097 31.7801C44.5169 31.6321 44.8628 31.287 45.0357 30.8679L45.7768 28.9448C46.0486 28.2298 45.7768 27.4408 45.1345 27.0464C44.2946 26.5533 43.2323 26.1834 42.1453 25.9862V24.5562C42.1453 23.718 41.4042 23.0276 40.5149 23.0276H38.7115C37.8715 23.0276 37.2045 23.6933 37.2045 24.5562V26.2821C34.4624 27.1696 32.7578 29.3886 32.7578 32.1992C32.7578 33.8511 33.326 35.2318 34.5118 36.3412C35.4258 37.2041 36.6857 37.9438 38.5138 38.6588C40.836 39.5957 40.836 40.3106 40.836 40.6805C40.836 41.642 39.7985 41.9872 38.9091 41.9872C37.7233 41.9872 36.5128 41.6174 35.5741 41.001C35.1788 40.7298 34.6847 40.6558 34.2153 40.8284C33.746 40.9763 33.4001 41.3215 33.2272 41.7899L32.5355 43.7377C32.2884 44.4033 32.5108 45.1183 33.0542 45.5128C33.993 46.1785 35.4011 46.6962 36.834 46.9428V48.4714C36.834 49.3097 37.5751 50.0246 38.4644 50.0246H40.2925C41.1572 50.0246 41.8736 49.3097 41.8736 48.4714V46.6469C44.6405 45.6854 46.4686 43.2692 46.4686 40.4832C46.518 38.5108 45.9498 35.7002 41.009 33.7032ZM40.9101 45.2416C40.5643 45.3402 40.3172 45.6607 40.3172 46.0306V48.3974H38.5138V46.2278C38.5138 45.8087 38.1927 45.4635 37.7974 45.4389C36.414 45.3156 35.0059 44.8471 34.1165 44.2554L34.7835 42.3817C35.9693 43.1706 37.501 43.6144 38.9585 43.6144C41.0337 43.6144 42.4912 42.4063 42.4912 40.7051C42.4912 39.1765 41.503 38.141 39.1562 37.1795C37.5257 36.5385 36.414 35.8974 35.6729 35.1824C34.8082 34.3688 34.413 33.4073 34.413 32.1992C34.413 29.9556 35.8458 28.2544 38.2421 27.6874C38.6127 27.5888 38.8597 27.2682 38.8597 26.8984V24.6302H40.5643C40.5643 24.6302 40.5643 24.6302 40.589 24.6302V26.6765C40.589 27.0957 40.8854 27.4162 41.3054 27.4655C42.3924 27.5888 43.5041 27.9339 44.3193 28.4024L43.6276 30.2268C43.0841 29.9063 41.8736 29.2653 39.9714 29.2653C38.9832 29.2653 38.168 29.5118 37.5998 30.0296C37.081 30.498 36.8093 31.1144 36.8093 31.8294C36.8093 33.4073 37.9951 34.1716 40.4655 35.2071C44.4428 36.8343 44.9616 38.782 44.9616 40.4832C44.9122 42.7022 43.3064 44.6252 40.9101 45.2416Z" fill="#3F86A3"/>
</g>
<defs>
<clipPath id="clip0">
<rect width="48" height="50" fill="white"/>
</clipPath>
</defs>
</svg>
