<svg width="22" height="22" viewBox="0 0 22 22" fill="none" xmlns="http://www.w3.org/2000/svg">
<path d="M21.1394 2.85377H8.03227C7.67192 1.77755 6.6596 1 5.46938 1C4.27915 1 3.26684 1.77755 2.90649 2.85377H0.860569C0.385306 2.85377 0 3.24122 0 3.71913C0 4.19704 0.385306 4.58449 0.860569 4.58449H2.90654C3.26689 5.6607 4.27921 6.43826 5.46944 6.43826C6.65966 6.43826 7.67198 5.6607 8.03233 4.58449H21.1394C21.6147 4.58449 22 4.19704 22 3.71913C22 3.24122 21.6147 2.85377 21.1394 2.85377ZM5.46938 4.70754C4.92739 4.70754 4.48643 4.26413 4.48643 3.71913C4.48643 3.17413 4.92739 2.73072 5.46938 2.73072C6.01136 2.73072 6.45232 3.17413 6.45232 3.71913C6.45232 4.26413 6.01136 4.70754 5.46938 4.70754Z" fill="#587175"/>
<path d="M21.1394 2.85377H8.03227C7.67192 1.77755 6.6596 1 5.46938 1C4.27915 1 3.26684 1.77755 2.90649 2.85377H0.860569C0.385306 2.85377 0 3.24122 0 3.71913C0 4.19704 0.385306 4.58449 0.860569 4.58449H2.90654C3.26689 5.6607 4.27921 6.43826 5.46944 6.43826C6.65966 6.43826 7.67198 5.6607 8.03233 4.58449H21.1394C21.6147 4.58449 22 4.19704 22 3.71913C22 3.24122 21.6147 2.85377 21.1394 2.85377ZM5.46938 4.70754C4.92739 4.70754 4.48643 4.26413 4.48643 3.71913C4.48643 3.17413 4.92739 2.73072 5.46938 2.73072C6.01136 2.73072 6.45232 3.17413 6.45232 3.71913C6.45232 4.26413 6.01136 4.70754 5.46938 4.70754Z" stroke="#587175"/>
<path d="M21.1394 9.63471H19.0934C18.733 8.5585 17.7207 7.78094 16.5305 7.78094C15.3403 7.78094 14.328 8.5585 13.9677 9.63471H0.860569C0.385306 9.63471 0 10.0222 0 10.5001C0 10.978 0.385306 11.3654 0.860569 11.3654H13.9677C14.328 12.4416 15.3404 13.2192 16.5306 13.2192C17.7207 13.2192 18.7331 12.4416 19.0935 11.3654H21.1394C21.6147 11.3654 22 10.978 22 10.5001C22 10.0222 21.6147 9.63471 21.1394 9.63471ZM16.5306 11.4885C15.9886 11.4885 15.5476 11.0451 15.5476 10.5001C15.5476 9.95507 15.9886 9.51166 16.5306 9.51166C17.0725 9.51166 17.5135 9.95507 17.5135 10.5001C17.5135 11.0451 17.0725 11.4885 16.5306 11.4885Z" fill="#587175"/>
<path d="M21.1394 9.63471H19.0934C18.733 8.5585 17.7207 7.78094 16.5305 7.78094C15.3403 7.78094 14.328 8.5585 13.9677 9.63471H0.860569C0.385306 9.63471 0 10.0222 0 10.5001C0 10.978 0.385306 11.3654 0.860569 11.3654H13.9677C14.328 12.4416 15.3404 13.2192 16.5306 13.2192C17.7207 13.2192 18.7331 12.4416 19.0935 11.3654H21.1394C21.6147 11.3654 22 10.978 22 10.5001C22 10.0222 21.6147 9.63471 21.1394 9.63471ZM16.5306 11.4885C15.9886 11.4885 15.5476 11.0451 15.5476 10.5001C15.5476 9.95507 15.9886 9.51166 16.5306 9.51166C17.0725 9.51166 17.5135 9.95507 17.5135 10.5001C17.5135 11.0451 17.0725 11.4885 16.5306 11.4885Z" stroke="#587175"/>
<path d="M21.1394 16.4155H11.7193C11.359 15.3393 10.3467 14.5618 9.15646 14.5618C7.96623 14.5618 6.95392 15.3393 6.59357 16.4155H0.860569C0.385306 16.4155 0 16.803 0 17.2809C0 17.7588 0.385306 18.1463 0.860569 18.1463H6.59357C6.95392 19.2225 7.96623 20 9.15646 20C10.3467 20 11.359 19.2225 11.7193 18.1463H21.1394C21.6147 18.1463 22 17.7588 22 17.2809C22 16.803 21.6147 16.4155 21.1394 16.4155ZM9.15646 18.2694C8.61447 18.2694 8.17352 17.826 8.17352 17.281C8.17352 16.736 8.61447 16.2925 9.15646 16.2925C9.69845 16.2925 10.1394 16.7359 10.1394 17.2809C10.1394 17.8259 9.69845 18.2694 9.15646 18.2694Z" fill="#587175"/>
<path d="M21.1394 16.4155H11.7193C11.359 15.3393 10.3467 14.5618 9.15646 14.5618C7.96623 14.5618 6.95392 15.3393 6.59357 16.4155H0.860569C0.385306 16.4155 0 16.803 0 17.2809C0 17.7588 0.385306 18.1463 0.860569 18.1463H6.59357C6.95392 19.2225 7.96623 20 9.15646 20C10.3467 20 11.359 19.2225 11.7193 18.1463H21.1394C21.6147 18.1463 22 17.7588 22 17.2809C22 16.803 21.6147 16.4155 21.1394 16.4155ZM9.15646 18.2694C8.61447 18.2694 8.17352 17.826 8.17352 17.281C8.17352 16.736 8.61447 16.2925 9.15646 16.2925C9.69845 16.2925 10.1394 16.7359 10.1394 17.2809C10.1394 17.8259 9.69845 18.2694 9.15646 18.2694Z" stroke="#587175"/>
</svg>
