<svg width="51" height="50" viewBox="0 0 51 50" fill="none" xmlns="http://www.w3.org/2000/svg">
<path d="M19.2816 27.4586C19.2816 30.3554 21.6195 32.7166 24.4877 32.7166C27.3558 32.7166 29.6937 30.3554 29.6937 27.4586C29.6937 24.5618 27.3558 22.2006 24.4877 22.2006C21.5954 22.2006 19.2816 24.5618 19.2816 27.4586ZM28.103 27.4586C28.103 29.479 26.464 31.1343 24.4636 31.1343C22.4631 31.1343 20.8242 29.479 20.8242 27.4586C20.8242 25.4381 22.4631 23.7828 24.4636 23.7828C26.4881 23.7828 28.103 25.4381 28.103 27.4586Z" fill="#587175"/>
<path d="M31.5737 40.8959C31.9835 40.7985 32.2727 40.3847 32.1763 39.9708C31.4532 36.2951 28.2235 33.6174 24.5118 33.6174C22.7283 33.6174 20.9929 34.2503 19.595 35.37C18.2212 36.4898 17.233 38.0964 16.8714 39.8491C16.775 40.2629 17.0402 40.7011 17.474 40.7741C17.8837 40.8715 18.3176 40.6037 18.3899 40.1656C19.0165 37.2688 21.5714 35.1753 24.5118 35.1753C27.4764 35.1753 30.0553 37.3175 30.6578 40.2629C30.7301 40.6281 31.0676 40.8959 31.4291 40.8959C31.4773 40.8959 31.5255 40.8959 31.5737 40.8959Z" fill="#587175"/>
<path d="M34.6588 30.8666C34.6588 33.7634 36.9967 36.1246 39.8649 36.1246C42.733 36.1246 45.0709 33.7634 45.0709 30.8666C45.0709 27.9698 42.733 25.6086 39.8649 25.6086C36.9967 25.6086 34.6588 27.9698 34.6588 30.8666ZM43.5043 30.8666C43.5043 32.887 41.8653 34.5423 39.8649 34.5423C37.8644 34.5423 36.2254 32.887 36.2254 30.8666C36.2254 28.8461 37.8644 27.1908 39.8649 27.1908C41.8653 27.1908 43.5043 28.8218 43.5043 30.8666Z" fill="#587175"/>
<path d="M47.5775 43.3544C46.8544 39.6787 43.6247 37.001 39.913 37.001C38.1295 37.001 36.3941 37.6339 34.9962 38.7537C33.6224 39.8734 32.6342 41.48 32.2727 43.2327L31.0434 49.0263C30.947 49.4401 31.2122 49.8783 31.646 49.9513C31.6942 49.9513 31.7665 49.9757 31.8147 49.9757C32.1762 49.9757 32.4896 49.7322 32.586 49.3427L33.8152 43.5492C34.4418 40.6524 36.9967 38.5589 39.9371 38.5589C42.9017 38.5589 45.4806 40.7011 46.0831 43.6465L47.1918 49.3427C47.2642 49.7809 47.6739 50.0487 48.1077 49.9513C48.5416 49.8783 48.8067 49.4645 48.7103 49.0263L47.5775 43.3544Z" fill="#587175"/>
<path d="M9.30346 36.1246C12.1716 36.1246 14.5095 33.7634 14.5095 30.8666C14.5095 27.9698 12.1716 25.6086 9.30346 25.6086C6.43531 25.6086 4.09741 27.9698 4.09741 30.8666C4.09741 33.7634 6.43531 36.1246 9.30346 36.1246ZM9.30346 27.1908C11.3039 27.1908 12.9429 28.8461 12.9429 30.8666C12.9429 32.887 11.3039 34.5423 9.30346 34.5423C7.30299 34.5423 5.66405 32.887 5.66405 30.8666C5.66405 28.8218 7.30299 27.1908 9.30346 27.1908Z" fill="#587175"/>
<path d="M17.0161 43.3544C16.293 39.6787 13.0633 37.001 9.35161 37.001C7.56806 37.001 5.83271 37.6339 4.43479 38.7537C3.06097 39.8734 2.07278 41.48 1.71125 43.2327L0.482045 49.0263C0.385637 49.4401 0.65076 49.8783 1.0846 49.9513C1.1328 49.9513 1.20511 49.9757 1.25331 49.9757C1.61484 49.9757 1.92817 49.7322 2.02458 49.3427L3.25378 43.5492C3.88044 40.6524 6.43526 38.5589 9.37571 38.5589C12.3403 38.5589 14.9192 40.7011 15.5217 43.6465L16.6304 49.3427C16.7027 49.7809 17.1125 50.0487 17.5463 49.9513C17.9802 49.8783 18.2453 49.4645 18.1489 49.0263L17.0161 43.3544Z" fill="#587175"/>
<path d="M50.2046 0H0.771267C0.337429 0 0 0.340798 0 0.778968V30.5501C0 30.9883 0.337429 31.3291 0.771267 31.3291C1.2051 31.3291 1.54253 30.9883 1.54253 30.5501V1.58228H49.4093V30.5745C49.4093 31.0127 49.7467 31.3535 50.1805 31.3535C50.6144 31.3535 50.9518 31.0127 50.9518 30.5745V0.778968C51 0.340798 50.6385 0 50.2046 0Z" fill="#587175"/>
<path d="M5.37478 6.30476H9.42393C9.85777 6.30476 10.1952 5.96396 10.1952 5.52579C10.1952 5.08762 9.85777 4.74683 9.42393 4.74683H5.37478C4.94094 4.74683 4.60352 5.08762 4.60352 5.52579C4.60352 5.93962 4.94094 6.30476 5.37478 6.30476Z" fill="#587175"/>
<path d="M5.37478 9.88313H14.8469C15.2807 9.88313 15.6182 9.54233 15.6182 9.10416C15.6182 8.66599 15.2807 8.3252 14.8469 8.3252H5.37478C4.94094 8.3252 4.60352 8.66599 4.60352 9.10416C4.60352 9.54233 4.94094 9.88313 5.37478 9.88313Z" fill="#587175"/>
<path d="M5.37478 13.4615H11.6172C12.0511 13.4615 12.3885 13.1207 12.3885 12.6826C12.3885 12.2444 12.0511 11.9036 11.6172 11.9036H5.37478C4.94094 11.9036 4.60352 12.2444 4.60352 12.6826C4.60352 13.1207 4.94094 13.4615 5.37478 13.4615Z" fill="#587175"/>
<path d="M45.4324 6.0857C45.119 5.76924 44.637 5.76924 44.3237 6.0857L36.2977 14.1918L32.4655 11.3437C32.1762 11.1246 31.7665 11.149 31.5014 11.3681L25.1143 16.7965L20.4144 13.3155C20.1252 13.0964 19.7155 13.1208 19.4262 13.3642L9.59259 22.2249C9.27926 22.5171 9.25516 23.0039 9.52028 23.3447C9.6649 23.5151 9.88182 23.6125 10.0987 23.6125C10.2916 23.6125 10.4603 23.5394 10.629 23.4177L20.0047 14.9465L24.7287 18.4518C25.0179 18.6709 25.4277 18.6466 25.6928 18.4275L32.0557 12.999L35.9362 15.8715C36.2495 16.0906 36.6833 16.0662 36.9484 15.7985L45.4324 7.20547C45.7457 6.88901 45.7457 6.40216 45.4324 6.0857Z" fill="#587175"/>
</svg>
