<svg width="50" height="50" viewBox="0 0 50 50" fill="none" xmlns="http://www.w3.org/2000/svg">
<g clip-path="url(#clip0)">
<path d="M28.1466 28.944C20.1724 28.944 13.6638 22.4569 13.6638 14.4612C13.6638 6.46552 20.1724 0 28.1466 0C36.1207 0 42.6293 6.48707 42.6293 14.4828C42.6293 22.4784 36.1423 28.944 28.1466 28.944ZM28.1466 1.57328C21.0345 1.57328 15.2586 7.34914 15.2586 14.4612C15.2586 21.5733 21.0561 27.3707 28.1466 27.3707C35.2586 27.3707 41.0345 21.5948 41.0345 14.4828C41.0345 7.37069 35.2586 1.57328 28.1466 1.57328Z" fill="#587175"/>
<path d="M26.5733 22.1121C25.7974 22.1121 25.0647 21.8104 24.5259 21.2716L20.3233 17.0474C19.7845 16.5086 19.4828 15.7759 19.4828 15C19.4828 14.2242 19.7845 13.4914 20.3233 12.9526C21.4224 11.8535 23.319 11.8535 24.4181 12.9526L26.5733 15.1078L31.8966 9.7845C32.9957 8.68536 34.8923 8.68536 35.9914 9.7845C36.5302 10.3233 36.8319 11.056 36.8319 11.8319C36.8319 12.6078 36.5302 13.3405 35.9914 13.8793L28.6207 21.25C28.0819 21.8104 27.3492 22.1121 26.5733 22.1121ZM22.3707 13.6854C22.0259 13.6854 21.6811 13.8147 21.444 14.0733C20.9268 14.5905 20.9268 15.431 21.444 15.9267L25.6466 20.1293C26.1423 20.625 27.0043 20.625 27.5 20.1293L34.8707 12.7586C35.388 12.2414 35.388 11.4009 34.8707 10.9052C34.375 10.4095 33.513 10.4095 33.0173 10.9052L27.1336 16.7888C26.8319 17.0905 26.3362 17.0905 26.013 16.7888L23.2974 14.0733C23.0388 13.8147 22.7155 13.6854 22.3707 13.6854Z" fill="#587175"/>
<path d="M36.1638 48.944H20.4957C16.3578 48.944 9.11641 44.8061 8.81469 44.6337C8.57762 44.4828 8.42676 44.2242 8.42676 43.944V31.7026C8.42676 31.2931 8.72848 30.9699 9.11641 30.9268L18.1035 29.8707H18.125C20.5819 29.8707 22.8018 30.7974 24.4828 32.4785L26.8319 34.8276C27.7371 35.7328 28.944 36.2285 30.2155 36.2285H36.3362C37.3061 36.2285 38.2328 36.638 38.8793 37.3492C39.2457 37.7587 39.5043 38.2328 39.6337 38.7285L42.8449 35.4095C44.8707 33.1681 47.0474 32.8018 48.7285 34.3104C49.5474 35.0431 50 35.9483 50.0216 36.9397C50.0431 37.9957 49.569 39.0733 48.6854 39.9785L42.7802 46.0561C41.0776 47.888 38.6638 48.944 36.1638 48.944ZM10 43.4914C11.5518 44.3535 17.2845 47.3707 20.4957 47.3707H36.1638C38.2328 47.3707 40.2155 46.4871 41.5949 44.9785L47.5216 38.8578C48.125 38.2543 48.4268 37.6078 48.4052 36.9828C48.3837 36.444 48.125 35.9483 47.6509 35.4957C46.5949 34.5475 45.4095 34.9354 43.9871 36.4871L39.1811 41.4656C38.9009 41.7457 38.4483 41.7888 38.125 41.5518C37.8018 41.3147 37.7155 40.8621 37.9311 40.5173C38.0604 40.3018 38.1466 40.0647 38.1681 39.8276C38.2112 39.2888 38.0604 38.7931 37.694 38.4052C37.3492 38.0173 36.8535 37.8018 36.3362 37.8018H30.2155C28.513 37.8018 26.9181 37.1337 25.7112 35.9483L23.3621 33.5992C21.9828 32.2199 20.1509 31.4656 18.1897 31.4656L10 32.4354V43.4914Z" fill="#587175"/>
<path d="M36.4871 43.0388H25.8621C23.9009 43.0388 21.9612 42.5 20.2587 41.5086C19.8923 41.2931 19.763 40.7974 19.9785 40.431C20.194 40.0646 20.6897 39.9353 21.0561 40.1508C22.5 41.0129 24.1595 41.4655 25.8405 41.4655H36.444C36.7457 41.4655 37.2414 41.3577 37.9311 40.4526C38.1897 40.1077 38.6854 40.0431 39.0302 40.3017C39.375 40.5603 39.4397 41.056 39.1811 41.4008C38.3836 42.5 37.5 43.0388 36.4871 43.0388Z" fill="#587175"/>
<path d="M7.11207 50H0.797414C0.366379 50 0 49.6552 0 49.2026V27.1121C0 26.6811 0.344828 26.3147 0.797414 26.3147H9.22414C9.65517 26.3147 10.0216 26.6595 10.0216 27.1121V47.1121C10 48.7069 8.7069 50 7.11207 50ZM1.57328 48.4268H7.11207C7.84483 48.4268 8.42672 47.8449 8.42672 47.1121V27.9095H1.57328V48.4268Z" fill="#587175"/>
<path d="M13.4052 28.1466H9.20264V47.0906H13.4052V28.1466Z" fill="white"/>
<path d="M13.4267 47.8879H9.20257C8.77153 47.8879 8.40515 47.5431 8.40515 47.0905V28.1465C8.40515 27.7155 8.74998 27.3491 9.20257 27.3491H13.4052C13.8362 27.3491 14.2026 27.6939 14.2026 28.1465V47.0905C14.2026 47.5431 13.8577 47.8879 13.4267 47.8879ZM9.99998 46.3146H12.6293V28.9439H9.99998V46.3146Z" fill="#587175"/>
<path d="M5.00005 45.7759C4.56902 45.7759 4.20264 45.431 4.20264 44.9784V42.8879C4.20264 42.4569 4.54746 42.0905 5.00005 42.0905C5.43109 42.0905 5.79746 42.4353 5.79746 42.8879V45C5.79746 45.431 5.43109 45.7759 5.00005 45.7759Z" fill="#587175"/>
<path d="M1.8319 19.4828H0.797414C0.366379 19.4828 0 19.1379 0 18.6854C0 18.2543 0.344828 17.8879 0.797414 17.8879H1.85345C2.28448 17.8879 2.65086 18.2328 2.65086 18.6854C2.62931 19.1164 2.28448 19.4828 1.8319 19.4828Z" fill="#587175"/>
<path d="M3.94402 17.3707C3.51299 17.3707 3.14661 17.0259 3.14661 16.5733V15.5173C3.14661 15.0862 3.49143 14.7198 3.94402 14.7198C4.37505 14.7198 4.74143 15.0647 4.74143 15.5173V16.5733C4.74143 17.0043 4.37505 17.3707 3.94402 17.3707Z" fill="#587175"/>
<path d="M7.11199 19.4828H6.05596C5.62492 19.4828 5.25854 19.1379 5.25854 18.6854C5.25854 18.2543 5.60337 17.8879 6.05596 17.8879H7.11199C7.54303 17.8879 7.90941 18.2328 7.90941 18.6854C7.88786 19.1164 7.54303 19.4828 7.11199 19.4828Z" fill="#587175"/>
<path d="M3.94402 22.6293C3.51299 22.6293 3.14661 22.2845 3.14661 21.8319V20.7759C3.14661 20.3448 3.49143 19.9785 3.94402 19.9785C4.37505 19.9785 4.74143 20.3233 4.74143 20.7759V21.8319C4.74143 22.2845 4.37505 22.6293 3.94402 22.6293Z" fill="#587175"/>
<path d="M43.9439 4.74137H42.8879C42.4568 4.74137 42.0905 4.39654 42.0905 3.94396C42.0905 3.49137 42.4353 3.14655 42.8879 3.14655H43.9439C44.3749 3.14655 44.7413 3.49137 44.7413 3.94396C44.7413 4.39654 44.3749 4.74137 43.9439 4.74137Z" fill="#587175"/>
<path d="M46.0561 2.62931C45.625 2.62931 45.2587 2.28448 45.2587 1.8319V0.797414C45.2587 0.366379 45.6035 0 46.0561 0C46.4871 0 46.8535 0.344828 46.8535 0.797414V1.85345C46.8319 2.28448 46.4871 2.62931 46.0561 2.62931Z" fill="#587175"/>
<path d="M49.2026 4.74137H48.1465C47.7155 4.74137 47.3491 4.39654 47.3491 3.94396C47.3491 3.49137 47.6939 3.14655 48.1465 3.14655H49.2026C49.6336 3.14655 50 3.49137 50 3.94396C50 4.39654 49.6336 4.74137 49.2026 4.74137Z" fill="#587175"/>
<path d="M46.0561 7.88792C45.625 7.88792 45.2587 7.5431 45.2587 7.09051V6.03447C45.2587 5.60344 45.6035 5.23706 46.0561 5.23706C46.4871 5.23706 46.8535 5.58189 46.8535 6.03447V7.11206C46.8319 7.5431 46.4871 7.88792 46.0561 7.88792Z" fill="#587175"/>
<path d="M8.16802 4.74137H7.11199C6.68095 4.74137 6.31458 4.39654 6.31458 3.94396C6.31458 3.49137 6.6594 3.14655 7.11199 3.14655H8.16802C8.59906 3.14655 8.96544 3.49137 8.96544 3.94396C8.96544 4.39654 8.59906 4.74137 8.16802 4.74137Z" fill="#587175"/>
<path d="M10.2586 2.62931C9.82756 2.62931 9.46118 2.28448 9.46118 1.8319V0.797414C9.46118 0.366379 9.80601 0 10.2586 0C10.6896 0 11.056 0.344828 11.056 0.797414V1.85345C11.056 2.28448 10.6896 2.62931 10.2586 2.62931Z" fill="#587175"/>
<path d="M13.4268 4.74137H12.3708C11.9397 4.74137 11.5734 4.39654 11.5734 3.94396C11.5734 3.49137 11.9182 3.14655 12.3708 3.14655H13.4268C13.8578 3.14655 14.2242 3.49137 14.2242 3.94396C14.2242 4.39654 13.8578 4.74137 13.4268 4.74137Z" fill="#587175"/>
<path d="M10.2586 7.88792C9.82756 7.88792 9.46118 7.5431 9.46118 7.09051V6.03447C9.46118 5.60344 9.80601 5.23706 10.2586 5.23706C10.6896 5.23706 11.056 5.58189 11.056 6.03447V7.11206C11.056 7.5431 10.6896 7.88792 10.2586 7.88792Z" fill="#587175"/>
<path d="M42.8879 27.8879H41.8318C41.4008 27.8879 41.0344 27.5431 41.0344 27.0905C41.0344 26.6379 41.3793 26.2931 41.8318 26.2931H42.8879C43.3189 26.2931 43.6853 26.6379 43.6853 27.0905C43.6853 27.5431 43.3189 27.8879 42.8879 27.8879Z" fill="#587175"/>
<path d="M45.0001 25.7974C44.569 25.7974 44.2026 25.4526 44.2026 25V23.944C44.2026 23.5129 44.5475 23.1465 45.0001 23.1465C45.4311 23.1465 45.7975 23.4914 45.7975 23.944V25C45.7759 25.431 45.4311 25.7974 45.0001 25.7974Z" fill="#587175"/>
<path d="M48.1465 27.8879H47.0905C46.6595 27.8879 46.2931 27.5431 46.2931 27.0905C46.2931 26.6379 46.6379 26.2931 47.0905 26.2931H48.1465C48.5776 26.2931 48.944 26.6379 48.944 27.0905C48.944 27.5431 48.5991 27.8879 48.1465 27.8879Z" fill="#587175"/>
<path d="M45.0001 31.0561C44.569 31.0561 44.2026 30.7112 44.2026 30.2587V29.2026C44.2026 28.7716 44.5475 28.4052 45.0001 28.4052C45.4311 28.4052 45.7975 28.75 45.7975 29.2026V30.2587C45.7759 30.6897 45.4311 31.0561 45.0001 31.0561Z" fill="#587175"/>
</g>
<defs>
<clipPath id="clip0">
<rect width="50" height="50" fill="white"/>
</clipPath>
</defs>
</svg>
