<svg width="50" height="50" viewBox="0 0 50 50" fill="none" xmlns="http://www.w3.org/2000/svg">
<g clip-path="url(#clip0)">
<path d="M25.0001 16.2596C29.4826 16.2596 33.1295 12.6127 33.1295 8.13017C33.1295 4.82187 31.1531 1.87011 28.0944 0.610446C27.7204 0.45654 27.2923 0.634763 27.1383 1.00879C26.9843 1.38281 27.1626 1.81084 27.5366 1.96494C30.0443 2.99765 31.6646 5.41767 31.6646 8.13017C31.6646 11.805 28.6749 14.7947 25.0001 14.7947C21.3253 14.7947 18.3355 11.805 18.3355 8.13017C18.3355 4.45537 21.3253 1.46562 25.0001 1.46562C25.4046 1.46562 25.7325 1.13769 25.7325 0.7332C25.7325 0.328708 25.4046 0.000778198 25.0001 0.000778198C20.5176 0.000778198 16.8707 3.64765 16.8707 8.13017C16.8707 12.6127 20.5176 16.2596 25.0001 16.2596ZM22.3986 8.40195C22.1126 8.11592 21.6488 8.11592 21.3629 8.40195C21.0768 8.68799 21.0768 9.15176 21.3629 9.43769L22.8366 10.9114C23.1127 11.1875 23.4752 11.3255 23.8378 11.3255C24.2004 11.3255 24.5631 11.1874 24.8391 10.9114L28.6373 7.11318C28.9233 6.82715 28.9233 6.36338 28.6373 6.07744C28.3513 5.7914 27.8875 5.7914 27.6016 6.07744L23.8379 9.84121L22.3986 8.40195ZM49.7858 22.9607C49.5 22.6746 49.0362 22.6743 48.75 22.9603L45.9821 25.7253L34.6403 14.156L47.5618 1.25146C47.848 0.965622 47.8483 0.501853 47.5625 0.21572C47.2766 -0.0705108 46.8129 -0.0709015 46.5267 0.215036L30.6591 16.0617C29.9092 16.8107 29.5279 17.8159 29.5933 18.8759H28.6145C27.1387 18.8759 25.7276 19.5062 24.7434 20.6052L24.6019 20.7633C23.2524 20.0877 21.7686 19.7081 20.2596 19.6544C20.6148 18.379 20.2452 16.9828 19.2955 16.0586L3.2702 0.272165C2.98192 -0.0118195 2.51815 -0.00820616 2.23446 0.279977C1.95057 0.568161 1.95399 1.03183 2.24227 1.31572L15.9266 14.7961L6.06102 24.8594C5.77782 25.1482 5.78241 25.612 6.07128 25.8951C6.36005 26.1781 6.82372 26.1738 7.10702 25.8849L16.9701 15.824L18.2692 17.1038C18.6914 17.5169 18.9256 18.0695 18.9286 18.6598C18.9316 19.25 18.7032 19.8051 18.2853 20.2225L9.95135 28.548C9.09462 29.404 7.70038 29.4041 6.84344 28.548L1.25009 22.9603C0.963953 22.6744 0.500183 22.6746 0.214246 22.9607C-0.0715942 23.247 -0.0713989 23.7106 0.214734 23.9966L5.80809 29.5843C6.52206 30.2976 7.45956 30.654 8.39735 30.654C8.7369 30.654 9.07626 30.6065 9.40526 30.513C9.42362 31.0097 9.47753 31.5046 9.56581 31.9952C9.23388 32.1477 8.92294 32.3601 8.64989 32.6329L7.04208 34.2391C6.44237 34.8381 6.1122 35.6345 6.1122 36.4817C6.1122 37.3291 6.44237 38.1255 7.04208 38.7245C7.7329 39.4137 8.66229 39.7223 9.5787 39.638C9.49179 40.5765 9.8244 41.5055 10.4947 42.1737C11.1134 42.7918 11.926 43.1008 12.7387 43.1008C12.8363 43.1008 12.934 43.0961 13.0312 43.0871C12.9443 44.0256 13.2777 44.9539 13.9474 45.6229C14.6376 46.3123 15.5676 46.6204 16.4839 46.5363C16.397 47.4748 16.7296 48.4038 17.4 49.0722C18.0186 49.6902 18.8312 49.9992 19.6439 49.9992C20.4565 49.9992 21.2692 49.6902 21.888 49.0722L22.9458 48.0154L24.0036 49.0722C24.6223 49.6902 25.4349 49.9992 26.2475 49.9992C27.0602 49.9992 27.8729 49.6901 28.4916 49.0721C29.1599 48.4043 29.4931 47.4731 29.4077 46.5363C30.3274 46.621 31.2516 46.3147 31.9442 45.6229C32.6127 44.9552 32.9457 44.0239 32.8603 43.0871C33.78 43.1717 34.7043 42.8656 35.397 42.1736C36.0653 41.506 36.3983 40.5747 36.313 39.6379C37.2326 39.7225 38.1569 39.4161 38.8495 38.7243C39.4492 38.1253 39.7794 37.3289 39.7794 36.4816C39.7794 35.6343 39.4492 34.8379 38.8496 34.2389L37.9628 33.3529C38.5889 32.8753 39.1613 32.3324 39.6699 31.7301C39.9956 31.3443 40.2946 30.9336 40.5642 30.5045C40.9026 30.6038 41.2526 30.6536 41.6026 30.6536C42.5403 30.6536 43.478 30.2971 44.1919 29.5839L49.7852 23.9963C50.0715 23.7106 50.0717 23.247 49.7858 22.9607ZM10.4948 37.6883C9.82841 38.3542 8.74403 38.3541 8.07753 37.6883C7.75497 37.3659 7.57723 36.9375 7.57723 36.4818C7.57723 36.0262 7.75487 35.5978 8.07753 35.2754L9.68534 33.6692C10.0185 33.3363 10.4562 33.1699 10.8939 33.1699C11.3316 33.1699 11.7694 33.3363 12.1026 33.6692C12.4252 33.9916 12.6029 34.42 12.6029 34.8757C12.6029 35.3313 12.4253 35.7598 12.1026 36.0821L10.4948 37.6883ZM11.5301 41.1375C11.2075 40.8151 11.0299 40.3867 11.0299 39.9311C11.0299 39.4754 11.2075 39.0469 11.5302 38.7246L13.138 37.1185C13.8045 36.4528 14.889 36.4528 15.5555 37.1185C15.878 37.4408 16.0557 37.8692 16.0557 38.3249C16.0557 38.7806 15.8781 39.209 15.5555 39.5313L13.9476 41.1376C13.281 41.8032 12.1966 41.8032 11.5301 41.1375ZM14.9827 44.5866C14.6601 44.2643 14.4824 43.8358 14.4824 43.3802C14.4824 42.9245 14.66 42.4961 14.9827 42.1737L16.5905 40.5675C16.9238 40.2346 17.3615 40.0682 17.7992 40.0682C18.2369 40.0682 18.6747 40.2347 19.0079 40.5675C19.3306 40.8898 19.5082 41.3183 19.5082 41.7739C19.5082 42.2296 19.3306 42.6581 19.0079 42.9804L17.4001 44.5865C16.7337 45.2523 15.6493 45.2523 14.9827 44.5866ZM22.4607 46.4297L20.8529 48.0359C20.1864 48.7016 19.1019 48.7016 18.4354 48.0359V48.0358C18.1129 47.7135 17.9351 47.2851 17.9351 46.8294C17.9351 46.3737 18.1128 45.9453 18.4354 45.6229L20.0432 44.0168C20.3765 43.6839 20.8142 43.5175 21.2519 43.5175C21.6896 43.5175 22.1274 43.6839 22.4606 44.0168C22.7833 44.3392 22.9609 44.7676 22.9609 45.2232C22.9609 45.6789 22.7833 46.1073 22.4607 46.4297ZM38.3147 36.4818C38.3147 36.9375 38.1371 37.3659 37.8144 37.6883C37.148 38.3541 36.0636 38.3542 35.3972 37.6883L30.1491 32.4455C29.863 32.1597 29.3992 32.1598 29.1133 32.446C28.8274 32.7322 28.8276 33.196 29.1138 33.4817L34.3618 38.7245C34.6844 39.0469 34.8621 39.4753 34.8621 39.931C34.8621 40.3866 34.6845 40.8151 34.3618 41.1374C33.6955 41.8029 32.6113 41.803 31.9448 41.1377C31.9447 41.1376 31.9446 41.1375 31.9445 41.1374L26.6965 35.8945C26.4103 35.6086 25.9466 35.6089 25.6606 35.895C25.3748 36.1813 25.375 36.645 25.6611 36.9308L30.9093 42.1736C31.2318 42.496 31.4096 42.9244 31.4096 43.3801C31.4096 43.8358 31.2319 44.2643 30.9093 44.5865C30.2427 45.2522 29.1582 45.2522 28.4919 44.5865L23.2438 39.3438C22.9577 39.0578 22.4939 39.0581 22.208 39.3442C21.9222 39.6305 21.9223 40.0942 22.2085 40.38L27.4566 45.6228C27.7792 45.9451 27.9569 46.3735 27.9569 46.8292C27.9569 47.285 27.7793 47.7135 27.4566 48.0357C26.79 48.7015 25.7056 48.7014 25.0392 48.0357L23.9293 46.9269C24.2522 46.4225 24.4261 45.8362 24.426 45.2229C24.426 44.3757 24.0958 43.5793 23.4962 42.9803C22.8032 42.2879 21.8668 41.9835 20.9597 42.0667C20.9684 41.9698 20.9734 41.8723 20.9734 41.7738C20.9734 40.9266 20.6432 40.1301 20.0435 39.5311C19.3506 38.8388 18.4141 38.5345 17.507 38.6177C17.5158 38.5208 17.5208 38.4231 17.5208 38.3247C17.5208 37.4773 17.1906 36.681 16.5909 36.0819C15.8979 35.3896 14.9615 35.0854 14.0544 35.1686C14.0632 35.0717 14.0682 34.974 14.0682 34.8756C14.0682 34.0282 13.738 33.2318 13.1384 32.6328C12.5473 32.0422 11.779 31.7345 11.0029 31.7081C10.8849 31.0419 10.8418 30.3666 10.8743 29.6912C10.9124 29.6562 10.9502 29.621 10.9871 29.5841L19.3211 21.2586C19.3651 21.2146 19.4078 21.1697 19.4493 21.124C20.869 21.0546 22.2899 21.3249 23.5829 21.9015L18.9517 27.0724C18.1467 27.9714 18.1848 29.3438 19.0386 30.1966C20.6589 31.8153 23.2951 31.8153 24.9153 30.1966L28.3056 26.8098C28.591 26.5246 29.0555 26.5246 29.3408 26.8098L36.3111 33.7731L37.8148 35.2753C38.137 35.5978 38.3147 36.0261 38.3147 36.4818ZM38.5509 30.7853C38.0686 31.3564 37.5205 31.8669 36.9166 32.3079L30.3757 25.7735C29.5193 24.9183 28.1262 24.9182 27.2698 25.7736L23.8796 29.1604C22.8303 30.2086 21.1228 30.2088 20.0734 29.1604C19.7699 28.8572 19.7563 28.3693 20.0426 28.0498L25.8347 21.5825C26.5414 20.7934 27.5546 20.3408 28.6145 20.3408H29.9987C30.1694 20.6674 30.3902 20.9698 30.6584 21.2378L39.0134 29.5843C39.0946 29.6654 39.1791 29.7413 39.2658 29.8133C39.0476 30.1521 38.81 30.4785 38.5509 30.7853ZM43.1566 28.5479C42.2999 29.404 40.9057 29.404 40.0487 28.5479L31.6937 20.2014C31.2788 19.7868 31.0504 19.2357 31.0505 18.6497C31.0506 18.0637 31.2791 17.5126 31.6941 17.0982L33.6038 15.1911L44.9458 26.7605L43.1566 28.5479Z" fill="#3F86A3"/>
</g>
<defs>
<clipPath id="clip0">
<rect width="50" height="50" fill="white"/>
</clipPath>
</defs>
</svg>
