<svg width="16" height="16" viewBox="0 0 16 16" fill="none" xmlns="http://www.w3.org/2000/svg">
<path fill-rule="evenodd" clip-rule="evenodd" d="M8 2.66668C6.58551 2.66668 5.22895 3.22858 4.22876 4.22877C3.22856 5.22897 2.66666 6.58552 2.66666 8.00001V12C2.66666 12.3682 2.36818 12.6667 1.99999 12.6667C1.63181 12.6667 1.33333 12.3682 1.33333 12V8.00001C1.33333 6.2319 2.03571 4.53621 3.28595 3.28596C4.53619 2.03572 6.23188 1.33334 8 1.33334C9.76811 1.33334 11.4638 2.03572 12.714 3.28596C13.9643 4.53621 14.6667 6.2319 14.6667 8.00001V12C14.6667 12.3682 14.3682 12.6667 14 12.6667C13.6318 12.6667 13.3333 12.3682 13.3333 12V8.00001C13.3333 6.58552 12.7714 5.22897 11.7712 4.22877C10.771 3.22858 9.41448 2.66668 8 2.66668Z" fill="#32444E"/>
<path fill-rule="evenodd" clip-rule="evenodd" d="M1.33333 9.33332C1.33333 8.96513 1.63181 8.66666 1.99999 8.66666H3.99999C4.53043 8.66666 5.03914 8.87737 5.41421 9.25244C5.78928 9.62752 6 10.1362 6 10.6667V12.6667C6 13.1971 5.78928 13.7058 5.41421 14.0809C5.03914 14.4559 4.53043 14.6667 3.99999 14.6667H3.33333C2.8029 14.6667 2.29419 14.4559 1.91911 14.0809C1.54404 13.7058 1.33333 13.1971 1.33333 12.6667V9.33332ZM2.66666 9.99999V12.6667C2.66666 12.8435 2.7369 13.013 2.86192 13.1381C2.98695 13.2631 3.15652 13.3333 3.33333 13.3333H3.99999C4.17681 13.3333 4.34637 13.2631 4.4714 13.1381C4.59642 13.013 4.66666 12.8435 4.66666 12.6667V10.6667C4.66666 10.4898 4.59642 10.3203 4.4714 10.1953C4.34637 10.0702 4.17681 9.99999 3.99999 9.99999H2.66666ZM12 9.99999C11.8232 9.99999 11.6536 10.0702 11.5286 10.1953C11.4036 10.3203 11.3333 10.4898 11.3333 10.6667V12.6667C11.3333 12.8435 11.4036 13.013 11.5286 13.1381C11.6536 13.2631 11.8232 13.3333 12 13.3333H12.6667C12.8435 13.3333 13.013 13.2631 13.1381 13.1381C13.2631 13.013 13.3333 12.8435 13.3333 12.6667V9.99999H12ZM10.5858 9.25244C10.9609 8.87737 11.4696 8.66666 12 8.66666H14C14.3682 8.66666 14.6667 8.96513 14.6667 9.33332V12.6667C14.6667 13.1971 14.4559 13.7058 14.0809 14.0809C13.7058 14.4559 13.1971 14.6667 12.6667 14.6667H12C11.4696 14.6667 10.9609 14.4559 10.5858 14.0809C10.2107 13.7058 10 13.1971 10 12.6667V10.6667C10 10.1362 10.2107 9.62752 10.5858 9.25244Z" fill="#32444E"/>
</svg>
