<svg width="22" height="22" viewBox="0 0 22 22" fill="none" xmlns="http://www.w3.org/2000/svg">
<path d="M17.7461 7.49805H14.7812C14.3066 7.49805 13.9219 7.1133 13.9219 6.63867C13.9219 6.16404 14.3066 5.7793 14.7812 5.7793H17.7461C18.2207 5.7793 18.6055 6.16404 18.6055 6.63867C18.6055 7.1133 18.2207 7.49805 17.7461 7.49805ZM18.6055 10.1191C18.6055 9.64451 18.2207 9.25977 17.7461 9.25977H14.7812C14.3066 9.25977 13.9219 9.64451 13.9219 10.1191C13.9219 10.5938 14.3066 10.9785 14.7812 10.9785H17.7461C18.2207 10.9785 18.6055 10.5938 18.6055 10.1191ZM16.8867 15.3613C16.8867 15.836 17.2715 16.2207 17.7461 16.2207C18.2207 16.2207 18.6055 15.836 18.6055 15.3613C18.6055 14.8867 18.2207 14.502 17.7461 14.502C17.2715 14.502 16.8867 14.8867 16.8867 15.3613ZM15.168 15.3613C15.168 14.8867 14.7832 14.502 14.3086 14.502H11.7734C11.2988 14.502 10.9141 14.8867 10.9141 15.3613C10.9141 15.836 11.2988 16.2207 11.7734 16.2207H14.3086C14.7832 16.2207 15.168 15.836 15.168 15.3613ZM9.19531 15.3613C9.19531 14.8867 8.81057 14.502 8.33594 14.502H4.29688C3.82224 14.502 3.4375 14.8867 3.4375 15.3613C3.4375 15.836 3.82224 16.2207 4.29688 16.2207H8.33594C8.81057 16.2207 9.19531 15.836 9.19531 15.3613ZM9.19531 11.9238V6.63867C9.19531 6.16404 8.81057 5.7793 8.33594 5.7793H4.29688C3.82224 5.7793 3.4375 6.16404 3.4375 6.63867V11.9238C3.4375 12.3985 3.82224 12.7832 4.29688 12.7832H8.33594C8.81057 12.7832 9.19531 12.3985 9.19531 11.9238ZM5.15625 7.49805H7.47656V11.0645H5.15625V7.49805ZM10.9141 6.63867C10.9141 7.1133 11.2988 7.49805 11.7734 7.49805C12.2481 7.49805 12.6328 7.1133 12.6328 6.63867C12.6328 6.16404 12.2481 5.7793 11.7734 5.7793C11.2988 5.7793 10.9141 6.16404 10.9141 6.63867ZM10.957 10.1191C10.957 10.5938 11.3418 10.9785 11.8164 10.9785C12.291 10.9785 12.6758 10.5938 12.6758 10.1191C12.6758 9.64451 12.291 9.25977 11.8164 9.25977C11.3418 9.25977 10.957 9.64451 10.957 10.1191ZM22 16.2207C22 15.7461 21.6153 15.3613 21.1406 15.3613C20.666 15.3613 20.2812 15.7461 20.2812 16.2207C20.2812 17.1684 19.5102 17.9395 18.5625 17.9395H3.4375C2.48978 17.9395 1.71875 17.1684 1.71875 16.2207V5.7793C1.71875 4.83158 2.48978 4.06055 3.4375 4.06055H18.5625C19.5102 4.06055 20.2812 4.83158 20.2812 5.7793V11.9238C20.2812 12.3985 20.666 12.7832 21.1406 12.7832C21.6153 12.7832 22 12.3985 22 11.9238V5.7793C22 3.88386 20.4579 2.3418 18.5625 2.3418H3.4375C1.54206 2.3418 0 3.88386 0 5.7793V16.2207C0 18.1161 1.54206 19.6582 3.4375 19.6582H18.5625C20.4579 19.6582 22 18.1161 22 16.2207Z" fill="#587175"/>
</svg>
