<svg width="54" height="50" viewBox="0 0 54 50" fill="none" xmlns="http://www.w3.org/2000/svg">
<g clip-path="url(#clip0)">
<path d="M37.3928 17.381C37.0774 17.037 36.5519 16.9841 36.2103 17.3016C35.8687 17.6191 35.8161 18.1482 36.1314 18.4921C37.603 20.2116 38.4176 22.4339 38.4176 24.709C38.4176 29.9736 34.1606 34.2593 28.9315 34.2593C28.4585 34.2593 28.0906 34.6296 28.0906 35.1058C28.0906 35.582 28.4585 35.9524 28.9315 35.9524C35.1066 35.9524 40.0993 30.8995 40.0993 24.709C40.0731 22.037 39.1271 19.418 37.3928 17.381Z" fill="#3F86A3"/>
<path d="M32.3736 15.8201C32.6889 15.9524 33.0305 16.1111 33.3196 16.2698C33.451 16.3492 33.5824 16.3757 33.7137 16.3757C34.0291 16.3757 34.3181 16.2169 34.4495 15.9259C34.6597 15.5026 34.5021 15 34.1079 14.7884C33.74 14.6032 33.3721 14.418 32.978 14.2593C32.5575 14.1005 32.0583 14.3122 31.8743 14.7354C31.7167 15.1587 31.9532 15.6349 32.3736 15.8201Z" fill="#3F86A3"/>
<path d="M53.7635 48.545L39.8628 34.5503C40.835 33.4392 41.6759 32.1958 42.2803 30.8201H47.3256V38.4127C47.3256 38.8889 47.6934 39.2593 48.1664 39.2593C48.6394 39.2593 49.0073 38.8889 49.0073 38.4127V30.2646C49.0336 30.1852 49.0599 30.0794 49.0599 29.9735C49.0599 29.8677 49.0336 29.7619 49.0073 29.6825V0.846561C49.0073 0.37037 48.6394 0 48.1664 0H0.893431C0.420438 0 0.0525547 0.37037 0.0525547 0.846561V15.2381C0.0262774 15.3175 0 15.4233 0 15.5026C0 15.6085 0.0262774 15.6878 0.0525547 15.7937V29.709C0.0262774 29.7884 0 29.8942 0 29.9735C0 30.0794 0.0262774 30.1587 0.0525547 30.2646V44.6032C0.0525547 45.0794 0.420438 45.4497 0.893431 45.4497H43.4628C43.9358 45.4497 44.3036 45.0794 44.3036 44.6032C44.3036 44.127 43.9358 43.7566 43.4628 43.7566H1.73431V30.8201H12.0613C12.5343 30.8201 12.9022 30.4497 12.9022 29.9735C12.9022 29.4974 12.5343 29.127 12.0613 29.127H1.73431V16.3492H13.8745C14.3474 16.3492 14.7153 15.9788 14.7153 15.5026C14.7153 15.0265 14.3474 14.6561 13.8745 14.6561H1.73431V1.69312H47.3256V14.6561H39.8102C39.7839 14.6561 39.7314 14.6561 39.7051 14.6561C37.0248 11.7196 33.162 9.89418 28.9051 9.89418C20.7854 9.89418 14.1898 16.5344 14.1898 24.709C14.1898 32.8836 20.7854 39.5238 28.9051 39.5238C32.6628 39.5238 36.0788 38.0952 38.6803 35.7672L52.581 49.7619C52.7387 49.9206 52.9489 50 53.1854 50C53.3956 50 53.6058 49.9206 53.7898 49.7619C54.1051 49.418 54.1051 48.8889 53.7635 48.545ZM47.3256 16.3492V29.127H42.9372C43.3839 27.7249 43.5942 26.2434 43.5942 24.709C43.5942 21.6138 42.6482 18.7302 41.019 16.3492H47.3256ZM15.8715 24.709C15.8715 17.4868 21.7051 11.5873 28.9051 11.5873C36.0788 11.5873 41.9387 17.4603 41.9387 24.709C41.9387 31.9312 36.1051 37.8307 28.9051 37.8307C21.7314 37.8307 15.8715 31.9577 15.8715 24.709Z" fill="#3F86A3"/>
<path d="M5.12402 7.96297C5.12402 9.20636 6.12256 10.2117 7.3576 10.2117C8.59264 10.2117 9.59118 9.20636 9.59118 7.96297C9.59118 6.71959 8.59264 5.71429 7.3576 5.71429C6.12256 5.74075 5.12402 6.74604 5.12402 7.96297ZM7.88315 7.96297C7.88315 8.25398 7.64665 8.51853 7.33132 8.51853C7.04227 8.51853 6.7795 8.28043 6.7795 7.96297C6.7795 7.67197 7.01599 7.40742 7.33132 7.40742C7.64665 7.43387 7.88315 7.67197 7.88315 7.96297Z" fill="#3F86A3"/>
<path d="M13.4802 5.74074C12.2451 5.74074 11.2466 6.74603 11.2466 7.98942C11.2466 9.2328 12.2451 10.2381 13.4802 10.2381C14.7152 10.2381 15.7137 9.2328 15.7137 7.98942C15.7137 6.74603 14.7152 5.74074 13.4802 5.74074ZM13.4802 8.51852C13.1911 8.51852 12.9283 8.28042 12.9283 7.96296C12.9283 7.67195 13.1648 7.4074 13.4802 7.4074C13.7692 7.4074 14.032 7.6455 14.032 7.96296C14.032 8.28042 13.7692 8.51852 13.4802 8.51852Z" fill="#3F86A3"/>
<path d="M5.12402 22.7249C5.12402 23.9683 6.12256 24.9736 7.3576 24.9736C8.59264 24.9736 9.59118 23.9683 9.59118 22.7249C9.59118 21.4815 8.59264 20.4762 7.3576 20.4762C6.12256 20.4762 5.12402 21.5079 5.12402 22.7249ZM7.88315 22.7249C7.88315 23.0159 7.64665 23.2804 7.33132 23.2804C7.04227 23.2804 6.7795 23.0423 6.7795 22.7249C6.7795 22.4339 7.01599 22.1693 7.33132 22.1693C7.64665 22.1958 7.88315 22.4339 7.88315 22.7249Z" fill="#3F86A3"/>
<path d="M5.12402 37.619C5.12402 38.8624 6.12256 39.8677 7.3576 39.8677C8.59264 39.8677 9.59118 38.8624 9.59118 37.619C9.59118 36.3757 8.59264 35.3704 7.3576 35.3704C6.12256 35.3704 5.12402 36.3757 5.12402 37.619ZM7.88315 37.619C7.88315 37.91 7.64665 38.1746 7.33132 38.1746C7.04227 38.1746 6.7795 37.9365 6.7795 37.619C6.7795 37.3016 7.01599 37.0635 7.33132 37.0635C7.64665 37.0635 7.88315 37.3016 7.88315 37.619Z" fill="#3F86A3"/>
<path d="M11.2466 37.619C11.2466 38.8624 12.2451 39.8677 13.4802 39.8677C14.7152 39.8677 15.7137 38.8624 15.7137 37.619C15.7137 36.3757 14.7152 35.3704 13.4802 35.3704C12.2451 35.3704 11.2466 36.3757 11.2466 37.619ZM14.032 37.619C14.032 37.91 13.7955 38.1746 13.4802 38.1746C13.1911 38.1746 12.9283 37.9365 12.9283 37.619C12.9283 37.3016 13.1648 37.0635 13.4802 37.0635C13.7692 37.0635 14.032 37.3016 14.032 37.619Z" fill="#3F86A3"/>
</g>
<defs>
<clipPath id="clip0">
<rect width="54" height="50" fill="white"/>
</clipPath>
</defs>
</svg>
