<svg width="16" height="16" viewBox="0 0 16 16" fill="none" xmlns="http://www.w3.org/2000/svg">
<path fill-rule="evenodd" clip-rule="evenodd" d="M2.66666 3.33333C2.30151 3.33333 1.99999 3.63486 1.99999 4V12C1.99999 12.3651 2.30151 12.6667 2.66666 12.6667H13.3333C13.6985 12.6667 14 12.3651 14 12V4C14 3.63486 13.6985 3.33333 13.3333 3.33333H2.66666ZM0.666656 4C0.666656 2.89848 1.56513 2 2.66666 2H13.3333C14.4348 2 15.3333 2.89848 15.3333 4V12C15.3333 13.1015 14.4348 14 13.3333 14H2.66666C1.56513 14 0.666656 13.1015 0.666656 12V4Z" fill="#32444E"/>
<path fill-rule="evenodd" clip-rule="evenodd" d="M0.787165 3.6177C0.998308 3.31607 1.41399 3.24271 1.71563 3.45385L7.99999 7.8529L14.2843 3.45385C14.586 3.24271 15.0017 3.31607 15.2128 3.6177C15.4239 3.91933 15.3506 4.33502 15.049 4.54616L8.38229 9.21283C8.15275 9.37351 7.84722 9.37351 7.61768 9.21283L0.951011 4.54616C0.649378 4.33502 0.576022 3.91933 0.787165 3.6177Z" fill="#32444E"/>
</svg>
