<svg width="19" height="19" viewBox="0 0 19 19" fill="none" xmlns="http://www.w3.org/2000/svg">
<g opacity="0.95">
<path d="M9.024 17.5796L8.96266 17.6407L9.024 17.7019L9.86758 18.543L9.92856 18.6038L9.98954 18.543L15.1697 13.3781L15.1698 13.378C16.5068 12.0418 17.3361 10.1972 17.3361 8.16003C17.3361 4.08253 14.0207 0.777269 9.93177 0.777269C5.84281 0.777269 2.52741 4.08253 2.52741 8.16003C2.52741 10.1955 3.3567 12.0449 4.68901 13.3733C4.81671 13.5006 4.98589 13.576 5.17659 13.576C5.55282 13.576 5.85795 13.2721 5.85795 12.8964C5.85795 12.7046 5.7748 12.5314 5.64974 12.4067C4.56516 11.3253 3.88853 9.81678 3.88853 8.16003C3.88853 4.8388 6.59848 2.13648 9.93017 2.13648C13.2619 2.13648 15.9734 4.83883 15.9734 8.16003C15.9734 9.82141 15.2953 11.3268 14.201 12.4179L9.024 17.5796Z" fill="#587175" stroke="#587175" stroke-width="0.172727"/>
<path d="M11.1007 9.59907V10.309H13.9282V9.59907H13.3781L11.5065 4.88031L9.92837 7.63545L8.35187 4.88031L6.47867 9.59907H5.93018V10.309H8.75762V9.59907H8.33423L8.74639 8.42218L9.92837 10.3634L11.112 8.42218L11.5241 9.59907H11.1007Z" fill="#587175"/>
</g>
</svg>
