<svg width="16" height="16" viewBox="0 0 16 16" fill="none" xmlns="http://www.w3.org/2000/svg">
<path fill-rule="evenodd" clip-rule="evenodd" d="M4.70014 2.03349C5.57531 1.15832 6.76229 0.666656 7.99997 0.666656C9.23765 0.666656 10.4246 1.15832 11.2998 2.03349C12.175 2.90866 12.6666 4.09565 12.6666 5.33332C12.6666 7.56843 13.1447 8.95641 13.5852 9.76409C13.8064 10.1696 14.0218 10.4356 14.1714 10.5936C14.2464 10.6727 14.3053 10.7252 14.3408 10.7548C14.3586 10.7696 14.3705 10.7786 14.3756 10.7825C14.3764 10.783 14.377 10.7835 14.3775 10.7839C14.6165 10.948 14.7223 11.2483 14.638 11.5265C14.5529 11.8077 14.2937 12 14 12H1.99997C1.70619 12 1.44704 11.8077 1.36191 11.5265C1.27768 11.2483 1.38344 10.948 1.62243 10.7839C1.6229 10.7835 1.62353 10.783 1.62434 10.7825C1.62947 10.7786 1.64137 10.7696 1.65912 10.7548C1.6946 10.7252 1.75352 10.6727 1.8285 10.5936C1.97812 10.4356 2.19351 10.1696 2.41471 9.76409C2.85526 8.95641 3.3333 7.56843 3.3333 5.33332C3.3333 4.09565 3.82497 2.90866 4.70014 2.03349ZM1.62917 10.7793C1.62922 10.7793 1.62927 10.7792 1.62933 10.7792C1.62932 10.7792 1.62932 10.7792 1.62932 10.7792L1.62917 10.7793ZM3.43285 10.6667H12.5671C12.5164 10.5835 12.4654 10.4956 12.4147 10.4026C11.8553 9.3769 11.3333 7.76488 11.3333 5.33332C11.3333 4.44927 10.9821 3.60142 10.357 2.9763C9.73187 2.35118 8.88403 1.99999 7.99997 1.99999C7.11592 1.99999 6.26807 2.35118 5.64295 2.9763C5.01783 3.60142 4.66664 4.44927 4.66664 5.33332C4.66664 7.76488 4.14468 9.3769 3.58523 10.4026C3.5345 10.4956 3.48358 10.5835 3.43285 10.6667Z" fill="#32444E"/>
<path fill-rule="evenodd" clip-rule="evenodd" d="M6.5121 13.4233C6.83059 13.2386 7.23854 13.347 7.42328 13.6655C7.48189 13.7665 7.566 13.8504 7.66721 13.9087C7.76841 13.967 7.88316 13.9976 7.99995 13.9976C8.11674 13.9976 8.23149 13.967 8.33269 13.9087C8.4339 13.8504 8.51801 13.7665 8.57662 13.6655C8.76136 13.347 9.16931 13.2386 9.4878 13.4233C9.80628 13.6081 9.9147 14.016 9.72995 14.3345C9.55414 14.6376 9.30179 14.8892 8.99818 15.064C8.69456 15.2389 8.35033 15.331 7.99995 15.331C7.64957 15.331 7.30534 15.2389 7.00172 15.064C6.69811 14.8892 6.44576 14.6376 6.26995 14.3345C6.0852 14.016 6.19362 13.6081 6.5121 13.4233Z" fill="#32444E"/>
</svg>
