<svg width="32" height="32" viewBox="0 0 32 32" fill="none" xmlns="http://www.w3.org/2000/svg">
<path d="M28.6154 1.53841H3.38462C1.51831 1.53841 0 3.05678 0 4.92303V18.7692V20.923C0 22.7893 1.51831 24.3077 3.38462 24.3077H11.5571L10.5724 29.2307H7.38462C7.04475 29.2307 6.76925 29.5062 6.76925 29.8461C6.76925 30.186 7.04475 30.4615 7.38462 30.4615H24.6154C24.9552 30.4615 25.2307 30.186 25.2307 29.8461C25.2307 29.5062 24.9552 29.2307 24.6154 29.2307H21.4276L20.4429 24.3077H28.6154C30.4816 24.3077 32 22.7893 32 20.923V18.7692V4.92303C32 3.05678 30.4817 1.53841 28.6154 1.53841ZM11.8276 29.2307L12.8122 24.3077H19.1878L20.1724 29.2307H11.8276ZM30.7693 20.923C30.7693 22.1107 29.8031 23.0769 28.6154 23.0769H3.38462C2.197 23.0769 1.23075 22.1107 1.23075 20.923V19.3846H30.7692V20.923H30.7693ZM30.7693 18.1538H1.23075V16.9231H4.92306C5.26294 16.9231 5.53844 16.6476 5.53844 16.3077C5.53844 15.9678 5.26294 15.6923 4.92306 15.6923H1.23075V4.92303C1.23075 3.73541 2.19694 2.76916 3.38462 2.76916H28.6154C29.803 2.76916 30.7693 3.73534 30.7693 4.92303V18.1538Z" fill="#587175"/>
<path d="M15.9998 20C15.3212 20 14.769 20.5521 14.769 21.2307C14.769 21.9094 15.3212 22.4615 15.9998 22.4615C16.6784 22.4615 17.2305 21.9094 17.2305 21.2307C17.2305 20.5521 16.6784 20 15.9998 20Z" fill="#587175"/>
<path d="M21.0384 13.3241L19.7329 12.0186L20.8208 10.9308C20.979 10.7727 21.0389 10.5411 20.9772 10.326C20.9155 10.111 20.742 9.9464 20.524 9.89602L14.8671 8.59059C14.6604 8.54303 14.4437 8.60502 14.2935 8.75509C14.1435 8.90515 14.0813 9.12184 14.129 9.32865L15.4346 14.9855C15.4849 15.2034 15.6495 15.377 15.8646 15.4386C16.0797 15.5003 16.3112 15.4404 16.4694 15.2823L17.5572 14.1944L18.8627 15.4998C18.9829 15.62 19.1404 15.6801 19.2978 15.6801C19.4552 15.6801 19.6128 15.62 19.7329 15.4998L21.0384 14.1944C21.2786 13.9541 21.2786 13.5645 21.0384 13.3241ZM19.2978 14.1944L17.9924 12.889C17.8722 12.7688 17.7147 12.7087 17.5572 12.7087C17.3998 12.7087 17.2422 12.7688 17.1221 12.889L16.3842 13.6269L15.5499 10.0113L19.1654 10.8456L18.4275 11.5835C18.1872 11.8238 18.1872 12.2135 18.4275 12.4538L19.7329 13.7593L19.2978 14.1944Z" fill="#587175"/>
<path d="M13.4672 7.05823L12.8518 6.44285C12.6115 6.20254 12.2218 6.20254 11.9815 6.44285C11.7412 6.68317 11.7412 7.07279 11.9815 7.31317L12.5969 7.92854C12.7171 8.04873 12.8746 8.10879 13.0321 8.10879C13.1895 8.10879 13.3471 8.04873 13.4672 7.92854C13.7075 7.68829 13.7075 7.2986 13.4672 7.05823Z" fill="#587175"/>
<path d="M12.2669 8.72429H11.3966C11.0568 8.72429 10.7812 8.99979 10.7812 9.33966C10.7812 9.67954 11.0568 9.95504 11.3966 9.95504H12.2669C12.6067 9.95504 12.8822 9.67954 12.8822 9.33966C12.8822 8.99979 12.6067 8.72429 12.2669 8.72429Z" fill="#587175"/>
<path d="M13.4671 10.7504C13.2269 10.5101 12.8373 10.5101 12.5969 10.7504L11.9815 11.3658C11.7412 11.6061 11.7412 11.9958 11.9815 12.2361C12.1017 12.3563 12.2592 12.4164 12.4166 12.4164C12.5741 12.4164 12.7316 12.3563 12.8518 12.2361L13.4671 11.6207C13.7074 11.3805 13.7074 10.9908 13.4671 10.7504Z" fill="#587175"/>
<path d="M17.7748 6.44285C17.5345 6.20254 17.1449 6.20254 16.9045 6.44285L16.2891 7.05823C16.0488 7.29854 16.0488 7.68823 16.2891 7.92854C16.4093 8.04873 16.5668 8.10879 16.7243 8.10879C16.8818 8.10879 17.0393 8.04873 17.1594 7.92854L17.7748 7.31317C18.0151 7.07292 18.0151 6.68323 17.7748 6.44285Z" fill="#587175"/>
<path d="M14.8781 5.24303C14.5382 5.24303 14.2627 5.51853 14.2627 5.8584V6.72865C14.2627 7.06853 14.5382 7.34403 14.8781 7.34403C15.2179 7.34403 15.4934 7.06853 15.4934 6.72865V5.8584C15.4934 5.51853 15.2179 5.24303 14.8781 5.24303Z" fill="#587175"/>
<path d="M7.37225 16.1877C7.36487 16.1483 7.35256 16.1095 7.33718 16.072C7.32181 16.035 7.30275 15.9993 7.28056 15.9661C7.25843 15.9322 7.23256 15.9008 7.20425 15.8725C7.17593 15.8442 7.14456 15.8184 7.11068 15.7962C7.07743 15.7741 7.04175 15.755 7.00425 15.7396C6.96731 15.7242 6.92856 15.7119 6.88918 15.7045C6.80981 15.6885 6.72856 15.6885 6.64918 15.7045C6.60981 15.7119 6.57106 15.7242 6.53412 15.7396C6.49656 15.755 6.46087 15.774 6.42768 15.7962C6.39381 15.8183 6.36243 15.8442 6.33412 15.8725C6.30581 15.9008 6.28 15.9322 6.25781 15.9661C6.23568 15.9993 6.21656 16.035 6.20118 16.072C6.18581 16.1095 6.1735 16.1483 6.16612 16.1877C6.15812 16.227 6.15381 16.2677 6.15381 16.3077C6.15381 16.3477 6.15812 16.3883 6.16612 16.4277C6.1735 16.467 6.18581 16.5058 6.20118 16.5427C6.21656 16.5803 6.23562 16.616 6.25781 16.6492C6.27993 16.683 6.30581 16.7144 6.33412 16.7427C6.36243 16.771 6.39381 16.7968 6.42768 16.819C6.46093 16.8412 6.49662 16.8603 6.53412 16.8757C6.57106 16.891 6.60981 16.9033 6.64918 16.9113C6.68856 16.9193 6.72918 16.923 6.76918 16.923C6.80918 16.923 6.84981 16.9193 6.88918 16.9113C6.92856 16.9033 6.96731 16.891 7.00425 16.8757C7.04181 16.8603 7.0775 16.8412 7.11068 16.819C7.14456 16.7969 7.17593 16.771 7.20425 16.7427C7.23256 16.7144 7.25837 16.683 7.28056 16.6492C7.30268 16.6159 7.32181 16.5802 7.33718 16.5427C7.35256 16.5058 7.36487 16.467 7.37225 16.4277C7.38025 16.3883 7.38456 16.3477 7.38456 16.3077C7.38456 16.2677 7.38025 16.227 7.37225 16.1877Z" fill="#587175"/>
</svg>
