<svg width="50" height="50" viewBox="0 0 50 50" fill="none" xmlns="http://www.w3.org/2000/svg">
<g clip-path="url(#clip0)">
<path d="M7.20852 44.9352C7.91001 44.2871 8.36962 43.3509 8.36962 42.3188C8.36962 40.3504 6.74891 38.7422 4.76536 38.7422C2.78181 38.7422 1.1611 40.3504 1.1611 42.3188C1.1611 43.3509 1.59652 44.2871 2.32221 44.9352C2.00774 45.1032 1.69328 45.3192 1.42719 45.5593C0.483793 46.4234 0 47.6956 0 49.2319C0 49.6639 0.338655 50 0.774069 50C1.20948 50 1.54814 49.6639 1.54814 49.2319C1.54814 48.2237 1.8626 45.8953 4.76536 45.8953C7.66812 45.8953 7.98258 48.2237 7.98258 49.2319C7.98258 49.6639 8.32124 50 8.75665 50C9.19207 50 9.53072 49.6639 9.53072 49.2319C9.53072 47.6956 9.04693 46.4234 8.12772 45.5593C7.83745 45.2952 7.54717 45.1032 7.20852 44.9352ZM2.68505 42.3188C2.68505 41.1906 3.60426 40.2784 4.74117 40.2784C5.87808 40.2784 6.79729 41.1906 6.79729 42.3188C6.79729 43.4469 5.87808 44.3591 4.74117 44.3591C3.62845 44.3591 2.68505 43.4469 2.68505 42.3188Z" fill="#3F86A3"/>
<path d="M12.1675 38.6222C12.4335 38.9583 12.9173 39.0303 13.256 38.7662C13.5947 38.5022 13.6672 38.0221 13.4011 37.6861C13.0625 37.254 12.6754 36.8939 12.2642 36.6059C13.0625 35.9578 13.5705 34.9496 13.5705 33.8454C13.5705 31.8771 11.9498 30.2689 9.96621 30.2689C7.98265 30.2689 6.36195 31.8771 6.36195 33.8454C6.36195 34.9496 6.86993 35.9578 7.66819 36.6059C7.23278 36.8939 6.84574 37.278 6.50709 37.7101C6.241 38.0461 6.31357 38.5262 6.65222 38.7902C6.79736 38.8862 6.96669 38.9583 7.11183 38.9583C7.35372 38.9583 7.57143 38.8622 7.74076 38.6462C8.3455 37.8541 9.14376 37.422 9.96621 37.422C10.7887 37.422 11.5627 37.8541 12.1675 38.6222ZM7.91009 33.8454C7.91009 32.7173 8.82929 31.8051 9.96621 31.8051C11.1031 31.8051 12.0223 32.7173 12.0223 33.8454C12.0223 34.9736 11.1031 35.8858 9.96621 35.8858C8.82929 35.8858 7.91009 34.9736 7.91009 33.8454Z" fill="#3F86A3"/>
<path d="M22.2787 38.6222C22.5448 38.9583 23.0286 39.0303 23.3672 38.7662C23.7059 38.5022 23.7784 38.0221 23.5123 37.6861C23.1737 37.254 22.7867 36.8939 22.3754 36.6059C23.1737 35.9578 23.6817 34.9496 23.6817 33.8454C23.6817 31.8771 22.061 30.2689 20.0774 30.2689C18.0939 30.2689 16.4732 31.8771 16.4732 33.8454C16.4732 34.9496 16.9811 35.9578 17.7794 36.6059C17.344 36.8939 16.9569 37.278 16.6183 37.7101C16.3522 38.0461 16.4248 38.5262 16.7634 38.7902C16.9086 38.8862 17.0779 38.9583 17.223 38.9583C17.4649 38.9583 17.6826 38.8622 17.852 38.6462C18.4567 37.8541 19.255 37.422 20.0774 37.422C20.8999 37.422 21.6739 37.8541 22.2787 38.6222ZM18.0213 33.8454C18.0213 32.7173 18.9405 31.8051 20.0774 31.8051C21.2143 31.8051 22.1335 32.7173 22.1335 33.8454C22.1335 34.9736 21.2143 35.8858 20.0774 35.8858C18.9405 35.8858 18.0213 34.9736 18.0213 33.8454Z" fill="#3F86A3"/>
<path d="M32.39 38.6222C32.6561 38.9583 33.1399 39.0303 33.4785 38.7662C33.8172 38.5022 33.8897 38.0221 33.6237 37.6861C33.285 37.254 32.898 36.8939 32.4868 36.6059C33.285 35.9578 33.793 34.9496 33.793 33.8454C33.793 31.8771 32.1723 30.2689 30.1887 30.2689C28.2052 30.2689 26.5845 31.8771 26.5845 33.8454C26.5845 34.9496 27.0925 35.9578 27.8907 36.6059C27.4553 36.8939 27.0683 37.278 26.7296 37.7101C26.4635 38.0461 26.5361 38.5262 26.8748 38.7902C27.0199 38.8862 27.1892 38.9583 27.3344 38.9583C27.5763 38.9583 27.794 38.8622 27.9633 38.6462C28.568 37.8541 29.3663 37.422 30.1887 37.422C31.0112 37.422 31.7852 37.8541 32.39 38.6222ZM28.1326 33.8454C28.1326 32.7173 29.0518 31.8051 30.1887 31.8051C31.3256 31.8051 32.2449 32.7173 32.2449 33.8454C32.2449 34.9736 31.3256 35.8858 30.1887 35.8858C29.0518 35.8858 28.1326 34.9736 28.1326 33.8454Z" fill="#3F86A3"/>
<path d="M42.5012 38.6222C42.7673 38.9583 43.2511 39.0303 43.5897 38.7662C43.9284 38.5022 44.001 38.0221 43.7349 37.6861C43.3962 37.254 43.0092 36.8939 42.598 36.6059C43.3962 35.9578 43.9042 34.9496 43.9042 33.8454C43.9042 31.8771 42.2835 30.2689 40.2999 30.2689C38.3164 30.2689 36.6957 31.8771 36.6957 33.8454C36.6957 34.9496 37.2037 35.9578 38.0019 36.6059C37.5665 36.8939 37.1795 37.278 36.8408 37.7101C36.5747 38.0461 36.6473 38.5262 36.986 38.7902C37.1311 38.8862 37.3004 38.9583 37.4456 38.9583C37.6875 38.9583 37.9052 38.8622 38.0745 38.6462C38.6792 37.8541 39.4775 37.422 40.2999 37.422C41.1224 37.422 41.8965 37.8541 42.5012 38.6222ZM38.2438 33.8454C38.2438 32.7173 39.163 31.8051 40.2999 31.8051C41.4369 31.8051 42.3561 32.7173 42.3561 33.8454C42.3561 34.9736 41.4369 35.8858 40.2999 35.8858C39.163 35.8858 38.2438 34.9736 38.2438 33.8454Z" fill="#3F86A3"/>
<path d="M17.344 44.9352C18.0455 44.2871 18.5051 43.3509 18.5051 42.3188C18.5051 40.3504 16.8844 38.7422 14.9008 38.7422C12.9173 38.7422 11.2966 40.3504 11.2966 42.3188C11.2966 43.3509 11.732 44.2871 12.4577 44.9352C12.1432 45.1032 11.8288 45.3192 11.5627 45.5593C10.6435 46.4234 10.1597 47.6956 10.1597 49.2319C10.1597 49.6639 10.4983 50 10.9337 50C11.3692 50 11.7078 49.6639 11.7078 49.2319C11.7078 48.2237 12.0223 45.8953 14.925 45.8953C17.8278 45.8953 18.1423 48.2237 18.1423 49.2319C18.1423 49.6639 18.4809 50 18.9163 50C19.3517 50 19.6904 49.6639 19.6904 49.2319C19.6904 47.6956 19.2066 46.4234 18.2874 45.5593C17.9487 45.2952 17.6585 45.1032 17.344 44.9352ZM12.8205 42.3188C12.8205 41.1906 13.7397 40.2784 14.8766 40.2784C16.0136 40.2784 16.9328 41.1906 16.9328 42.3188C16.9328 43.4469 16.0136 44.3591 14.8766 44.3591C13.7397 44.3591 12.8205 43.4469 12.8205 42.3188Z" fill="#3F86A3"/>
<path d="M27.4552 44.9352C28.1567 44.2871 28.6163 43.3509 28.6163 42.3188C28.6163 40.3504 26.9956 38.7422 25.012 38.7422C23.0285 38.7422 21.4078 40.3504 21.4078 42.3188C21.4078 43.3509 21.8432 44.2871 22.5689 44.9352C22.2544 45.1032 21.94 45.3192 21.6739 45.5593C20.7547 46.4234 20.2709 47.6956 20.2709 49.2319C20.2709 49.6639 20.6095 50 21.0449 50C21.4804 50 21.819 49.6639 21.819 49.2319C21.819 48.2237 22.1335 45.8953 25.0362 45.8953C27.939 45.8953 28.2535 48.2237 28.2535 49.2319C28.2535 49.6639 28.5921 50 29.0275 50C29.4629 50 29.8016 49.6639 29.8016 49.2319C29.8016 47.6956 29.3178 46.4234 28.3986 45.5593C28.0841 45.2952 27.7939 45.1032 27.4552 44.9352ZM22.9559 42.3188C22.9559 41.1906 23.8751 40.2784 25.012 40.2784C26.149 40.2784 27.0682 41.1906 27.0682 42.3188C27.0682 43.4469 26.149 44.3591 25.012 44.3591C23.8751 44.3591 22.9559 43.4469 22.9559 42.3188Z" fill="#3F86A3"/>
<path d="M37.5907 44.9352C38.2922 44.2871 38.7518 43.3509 38.7518 42.3188C38.7518 40.3504 37.1311 38.7422 35.1475 38.7422C33.164 38.7422 31.5433 40.3504 31.5433 42.3188C31.5433 43.3509 31.9787 44.2871 32.7044 44.9352C32.3899 45.1032 32.0755 45.3192 31.8094 45.5593C30.8902 46.4234 30.4064 47.6956 30.4064 49.2319C30.4064 49.6639 30.745 50 31.1804 50C31.6159 50 31.9545 49.6639 31.9545 49.2319C31.9545 48.2237 32.269 45.8953 35.1717 45.8953C38.0745 45.8953 38.3889 48.2237 38.3889 49.2319C38.3889 49.6639 38.7276 50 39.163 50C39.5984 50 39.9371 49.6639 39.9371 49.2319C39.9371 47.6956 39.4533 46.4234 38.5341 45.5593C38.2196 45.2952 37.9052 45.1032 37.5907 44.9352ZM33.0672 42.3188C33.0672 41.1906 33.9864 40.2784 35.1233 40.2784C36.2603 40.2784 37.1795 41.1906 37.1795 42.3188C37.1795 43.4469 36.2603 44.3591 35.1233 44.3591C33.9864 44.3591 33.0672 43.4469 33.0672 42.3188Z" fill="#3F86A3"/>
<path d="M48.597 45.5593C48.3309 45.3192 48.0407 45.1032 47.702 44.9352C48.4035 44.2871 48.8631 43.3509 48.8631 42.3188C48.8631 40.3504 47.2424 38.7422 45.2589 38.7422C43.2753 38.7422 41.6546 40.3504 41.6546 42.3188C41.6546 43.3509 42.09 44.2871 42.8157 44.9352C42.5012 45.1032 42.1868 45.3192 41.9207 45.5593C41.0015 46.4234 40.5177 47.6956 40.5177 49.2319C40.5177 49.6639 40.8564 50 41.2918 50C41.7272 50 42.0658 49.6639 42.0658 49.2319C42.0658 48.2237 42.3803 45.8953 45.2831 45.8953C48.1858 45.8953 48.5003 48.2237 48.5003 49.2319C48.5003 49.6639 48.8389 50 49.2743 50C49.7097 50 50.0484 49.6639 50.0484 49.2319C50 47.6956 49.5162 46.4234 48.597 45.5593ZM43.2027 42.3188C43.2027 41.1906 44.122 40.2784 45.2589 40.2784C46.3958 40.2784 47.315 41.1906 47.315 42.3188C47.315 43.4469 46.3958 44.3591 45.2589 44.3591C44.122 44.3591 43.2027 43.4469 43.2027 42.3188Z" fill="#3F86A3"/>
<path d="M8.95013 26.4282H21.7223L24.7218 31.253C24.8669 31.469 25.1088 31.6131 25.3749 31.6131C25.641 31.6131 25.8829 31.493 26.028 31.253L29.1969 26.4282H42.0899C44.2428 26.4282 45.9845 24.7 45.9845 22.5636V3.86462C45.9603 1.72828 44.2186 0 42.0658 0H8.87757C6.72469 0 4.98303 1.72828 4.98303 3.86462V22.5156C4.98303 24.6759 6.74888 26.4282 8.95013 26.4282ZM6.53117 3.86462C6.53117 2.59241 7.57132 1.53625 8.87757 1.53625H42.0658C43.3478 1.53625 44.4122 2.56841 44.4122 3.86462V22.5636C44.4122 23.8358 43.372 24.892 42.0658 24.892H28.7615C28.4954 24.892 28.2535 25.012 28.1083 25.252L25.3991 29.4047L22.8108 25.252C22.6657 25.036 22.4238 24.892 22.1577 24.892H8.95013C7.6197 24.892 6.55536 23.8118 6.55536 22.5156V3.86462H6.53117Z" fill="#3F86A3"/>
<path d="M18.626 22.0356L20.6338 22.0115C21.2143 22.0115 21.6981 21.6035 21.8675 21.0754C22.3754 21.0274 23.1737 21.0034 23.8026 21.0994C24.359 21.1954 24.9637 21.2434 25.5443 21.2434H31.2047C32.6077 21.2434 33.7446 20.1152 33.7446 18.723V12.338C33.7446 11.6659 33.4785 11.0418 32.9947 10.5617C32.5109 10.0816 31.882 9.8176 31.2047 9.8176H28.955C29.3904 9.16949 29.8258 8.35336 29.9952 7.41721C30.0919 6.79311 30.1645 6.12101 30.2129 5.4489C30.2371 4.8488 30.0194 4.24871 29.6081 3.81664C29.1969 3.38457 28.6164 3.14453 28.0116 3.14453C26.9473 3.14453 26.0281 3.91265 25.8346 4.96882C25.5685 6.48106 25.1089 7.56124 24.5525 7.9453C24.238 8.16133 23.972 8.32936 23.7542 8.44938C23.2463 8.73743 22.7867 9.00147 22.6415 9.69758C22.4964 10.3697 22.1819 11.1858 21.553 11.6179C21.3111 11.3298 20.9482 11.1378 20.537 11.1378H20.5128L18.5293 11.1618C18.1664 11.1618 17.8036 11.3298 17.5617 11.5939C17.3198 11.8579 17.1989 12.194 17.1989 12.554L17.2956 20.6913C17.2956 21.4355 17.9004 22.0356 18.626 22.0356ZM24.1171 10.0096C24.1655 9.93762 24.359 9.8416 24.5041 9.76959C24.746 9.62557 25.0605 9.45754 25.4475 9.1935C26.3667 8.54539 26.9957 7.22518 27.3585 5.23286C27.4069 4.92081 27.6972 4.68078 28.0116 4.68078C28.2051 4.68078 28.3745 4.75279 28.4954 4.89681C28.6164 5.04083 28.6889 5.20886 28.6889 5.40089C28.6647 6.02499 28.5922 6.62509 28.4954 7.20118C28.2535 8.76143 26.8021 10.0336 26.8021 10.0336C26.5844 10.2257 26.4877 10.4897 26.5602 10.7537V13.4422C26.5602 14.6664 25.8346 15.7465 24.6976 16.2026L24.1897 16.4187C23.8026 16.5867 23.6091 17.0428 23.7784 17.4268C23.8994 17.7149 24.1897 17.9069 24.5041 17.9069C24.6009 17.9069 24.6976 17.8829 24.7944 17.8589L25.3024 17.6428C27.0198 16.9467 28.1084 15.2905 28.1084 13.4662V11.3778H31.2772C31.5433 11.3778 31.7852 11.4739 31.9787 11.6659C32.1722 11.8579 32.269 12.098 32.269 12.362V18.723C32.269 19.2751 31.8336 19.7072 31.2772 19.7072H25.6168C25.1089 19.7072 24.6009 19.6592 24.1413 19.5872C23.4156 19.4671 22.5931 19.4911 21.9884 19.5152L21.9158 13.1541C22.9802 12.6741 23.7542 11.5939 24.1171 10.0096ZM20.2951 12.6741L20.3919 20.4753L18.8196 20.4993L18.7228 12.6981L20.2951 12.6741Z" fill="#3F86A3"/>
</g>
<defs>
<clipPath id="clip0">
<rect width="50" height="50" fill="white"/>
</clipPath>
</defs>
</svg>
