<svg width="49" height="50" viewBox="0 0 49 50" fill="none" xmlns="http://www.w3.org/2000/svg">
<path d="M23.5526 40.864H3.32302C2.47769 40.864 1.77811 40.1635 1.77811 39.317V3.3275C1.77811 2.48103 2.47769 1.7805 3.32302 1.7805H45.5604C46.4057 1.7805 47.1053 2.48103 47.1053 3.3275V33.5377C47.1053 34.0339 47.5134 34.4133 47.9798 34.4133C48.4462 34.4133 48.8543 34.0047 48.8543 33.5377V3.3275C48.8543 1.48862 47.3676 0 45.5312 0H3.32302C1.48661 0 0 1.48862 0 3.3275V39.3462C0 41.1851 1.48661 42.6737 3.32302 42.6737H23.5526C24.0482 42.6737 24.4271 42.265 24.4271 41.798C24.4563 41.2726 24.0482 40.864 23.5526 40.864Z" fill="#3F86A3"/>
<path d="M42.9952 18.4764V5.95447C42.9952 5.45826 42.5871 5.07881 42.1207 5.07881H6.55856C6.06302 5.07881 5.68408 5.48745 5.68408 5.95447V18.4764C5.68408 18.9726 6.09217 19.352 6.55856 19.352H42.1207C42.5871 19.352 42.9952 18.9726 42.9952 18.4764ZM41.2171 17.5715H7.43304V6.85931H41.2171V17.5715Z" fill="#3F86A3"/>
<path d="M29.3532 24.4016C29.8488 24.4016 30.2277 23.993 30.2277 23.526C30.2277 23.0298 29.8196 22.6503 29.3532 22.6503H25.4472C24.9517 22.6503 24.5728 23.059 24.5728 23.526C24.5728 24.0222 24.9808 24.4016 25.4472 24.4016H29.3532Z" fill="#3F86A3"/>
<path d="M6.50022 24.4016H22.6198C23.1153 24.4016 23.4943 23.993 23.4943 23.526C23.4943 23.0298 23.0862 22.6503 22.6198 22.6503H6.50022C6.00468 22.6503 5.62574 23.059 5.62574 23.526C5.59659 23.993 6.00468 24.4016 6.50022 24.4016Z" fill="#3F86A3"/>
<path d="M33.405 27.7291C32.9095 27.7291 32.5305 28.1378 32.5305 28.6048C32.5305 29.101 32.9386 29.4804 33.405 29.4804H34.8333C35.3288 29.4804 35.7078 29.0718 35.7078 28.6048C35.7078 28.1086 35.2997 27.7291 34.8333 27.7291H33.405Z" fill="#3F86A3"/>
<path d="M31.0731 28.6048C31.0731 28.1086 30.665 27.7291 30.1986 27.7291H20.3462C19.8506 27.7291 19.4717 28.1378 19.4717 28.6048C19.4717 29.101 19.8798 29.4804 20.3462 29.4804H30.1695C30.6942 29.5096 31.0731 29.101 31.0731 28.6048Z" fill="#3F86A3"/>
<path d="M6.50022 29.5096H17.5187C18.0142 29.5096 18.3931 29.101 18.3931 28.634C18.3931 28.1378 17.985 27.7583 17.5187 27.7583H6.50022C6.00468 27.7583 5.62574 28.167 5.62574 28.634C5.59659 29.101 6.00468 29.5096 6.50022 29.5096Z" fill="#3F86A3"/>
<path d="M33.813 34.063C33.813 33.5668 33.4049 33.1874 32.9386 33.1874H25.6804C25.1848 33.1874 24.8059 33.596 24.8059 34.063C24.8059 34.5593 25.214 34.9387 25.6804 34.9387H32.9094C33.405 34.9679 33.813 34.5593 33.813 34.063Z" fill="#3F86A3"/>
<path d="M6.50022 34.9679H22.853C23.3485 34.9679 23.7275 34.5593 23.7275 34.0922C23.7275 33.596 23.3194 33.2166 22.853 33.2166H6.50022C6.00468 33.2166 5.62574 33.6252 5.62574 34.0922C5.59659 34.5593 6.00468 34.9679 6.50022 34.9679Z" fill="#3F86A3"/>
<path d="M48.1547 37.0403C47.6008 36.4857 46.8721 36.1938 46.1142 36.1938H43.5782C44.0738 35.4641 44.5693 34.5301 44.7442 33.4501C44.8608 32.7204 44.9482 31.9615 44.9774 31.2026C45.0065 30.502 44.7733 29.8307 44.2778 29.3345C43.7823 28.8383 43.141 28.5464 42.4414 28.5464C41.2171 28.5464 40.1677 29.4221 39.9637 30.648C39.6431 32.3701 39.1184 33.6252 38.5062 34.063C38.1273 34.3257 37.8358 34.5009 37.5735 34.6468C37.0196 34.9679 36.4658 35.289 36.2909 36.0771C36.116 36.836 35.7662 37.77 35.0666 38.2662C34.7751 37.9451 34.367 37.7408 33.9298 37.7408C33.9298 37.7408 33.9298 37.7408 33.9006 37.7408L31.627 37.77C31.2189 37.77 30.8108 37.9743 30.5193 38.2662C30.3736 38.4413 30.257 38.6456 30.1695 38.8792H27.1089C26.6133 38.8792 26.2344 39.2878 26.2344 39.7548C26.2344 40.2218 26.6425 40.6305 27.1089 40.6305H30.1404L30.2278 47.1687H27.1089C26.6133 47.1687 26.2344 47.5774 26.2344 48.0444C26.2344 48.5406 26.6425 48.92 27.1089 48.92H30.3444C30.5776 49.533 31.1315 49.9416 31.7727 49.9416H31.8019L34.0755 49.9124C34.4836 49.9124 34.8917 49.7081 35.1832 49.4162C35.2998 49.2703 35.4164 49.0952 35.4747 48.92C36.0868 48.9492 36.9613 49.0076 37.6901 49.1243C38.3313 49.2411 39.0018 49.2995 39.6722 49.2995H44.2487H46.0851C47.6883 49.2995 48.9708 48.0152 48.9708 46.4098V39.1127C49 38.3246 48.7085 37.5949 48.1547 37.0403ZM32.0059 48.2195L31.8893 39.5505L33.6674 39.5213L33.784 48.1903L32.0059 48.2195ZM37.9815 47.4022C37.1654 47.2563 36.2034 47.1979 35.533 47.1687L35.4456 40.0759C36.699 39.5213 37.6026 38.2662 38.0107 36.4565C38.069 36.3981 38.273 36.2814 38.4479 36.1938C38.7103 36.0479 39.0601 35.8435 39.4973 35.5225C40.5467 34.7928 41.2754 33.2458 41.6835 30.9691C41.7418 30.6188 42.0625 30.3561 42.4122 30.3561C42.6163 30.3561 42.8203 30.4437 42.9661 30.5896C43.1118 30.7356 43.1701 30.9399 43.1701 31.1442C43.141 31.8447 43.0535 32.5452 42.9661 33.2166C42.6746 34.9971 41.0422 36.4565 41.0422 36.4565C40.809 36.6608 40.6924 36.9819 40.7507 37.303V41.4478C40.7507 42.8488 39.9346 44.0747 38.652 44.6001L38.0981 44.8336C37.6318 45.0088 37.4277 45.5342 37.6318 46.0012C37.7775 46.3514 38.0981 46.5557 38.4479 46.5557C38.5645 46.5557 38.6811 46.5266 38.7977 46.4974L39.3516 46.2639C40.3426 45.8552 41.188 45.1547 41.7418 44.279V46.2931C41.7418 46.7601 41.8584 47.1979 42.0333 47.6065H39.7014C39.0892 47.5482 38.5354 47.519 37.9815 47.4022ZM47.2219 46.439C47.2219 47.052 46.7263 47.5482 46.1142 47.5482H44.3944C43.8406 47.3438 43.4616 46.8184 43.4616 46.2347V43.491C43.4616 42.9947 43.0535 42.6153 42.5871 42.6153C42.4997 42.6153 42.4414 42.6153 42.3831 42.6445C42.4705 42.2358 42.5288 41.8272 42.5288 41.4186V38.0035H46.1142C46.4057 38.0035 46.6972 38.1203 46.9012 38.3246C47.1053 38.5289 47.2219 38.8208 47.2219 39.1127V46.439Z" fill="#3F86A3"/>
</svg>
