<svg width="20" height="20" viewBox="0 0 20 20" fill="none" xmlns="http://www.w3.org/2000/svg">
<g opacity="0.6" clip-path="url(#clip0)">
<path d="M17.4284 2.14058L10.2016 0.0283154L10.1867 0.0241748C10.0646 -0.00805175 9.93555 -0.00805176 9.81344 0.0241357L9.80594 0.0261279L2.57164 2.14054C2.03797 2.28554 1.66602 2.77132 1.66602 3.32503V13.6288C1.66602 14.9817 2.41277 16.2014 3.61605 16.8169L8.34824 19.5983L8.38113 19.6162C8.88797 19.8721 9.44394 20 10 20C10.556 20 11.112 19.8721 11.6188 19.6163L11.6356 19.6078L16.3839 16.8169C17.5873 16.2015 18.334 14.9818 18.334 13.6289V3.32503C18.334 2.77132 17.9621 2.28562 17.4284 2.14058ZM17.1621 13.6288C17.1621 14.5434 16.6549 15.3675 15.8384 15.7795L15.8217 15.788L11.0749 18.578C10.4004 18.9122 9.59945 18.9122 8.92492 18.578L4.19434 15.7975L4.16141 15.7795C3.34504 15.3675 2.83789 14.5434 2.83789 13.6288V3.32503C2.83789 3.29984 2.85492 3.27781 2.87926 3.27136L9.99996 1.19031L17.1057 3.26722L17.1207 3.27136C17.145 3.27781 17.1621 3.29984 17.1621 3.32503V13.6288Z" fill="#3F86A3"/>
<path d="M10.0001 4.57404C7.23214 4.57404 4.98022 6.82595 4.98022 9.59392C4.98022 12.3619 7.23214 14.6138 10.0001 14.6138C12.7681 14.6138 15.02 12.3619 15.02 9.59392C15.02 6.82595 12.7681 4.57404 10.0001 4.57404ZM10.0001 13.4419C7.87831 13.4419 6.15214 11.7157 6.15214 9.59392C6.15214 7.47212 7.87831 5.74595 10.0001 5.74595C12.1219 5.74595 13.8481 7.47212 13.8481 9.59392C13.8481 11.7157 12.1219 13.4419 10.0001 13.4419Z" fill="#3F86A3"/>
<path d="M12.1492 8.08891C11.9295 7.85141 11.5588 7.83704 11.3212 8.0568L9.3422 9.88809L8.69533 9.24122C8.46654 9.01243 8.09553 9.01239 7.86666 9.24122C7.63787 9.47004 7.63787 9.84102 7.86666 10.0699L8.91212 11.1154C8.91712 11.1204 8.92255 11.1247 8.92767 11.1294C8.93486 11.1361 8.94197 11.1428 8.94939 11.1491C8.95748 11.1559 8.96584 11.1622 8.97423 11.1685C8.98189 11.1743 8.98947 11.1801 8.99732 11.1855C9.00619 11.1915 9.01525 11.1969 9.02435 11.2024C9.03216 11.2071 9.03986 11.212 9.04783 11.2163C9.05759 11.2216 9.06755 11.2262 9.07755 11.2309C9.08525 11.2345 9.09279 11.2383 9.1006 11.2416C9.11138 11.2461 9.12232 11.2498 9.1333 11.2536C9.14064 11.2562 9.14787 11.259 9.15533 11.2613C9.1672 11.2649 9.17919 11.2677 9.19123 11.2705C9.19802 11.2721 9.2047 11.2741 9.21154 11.2755C9.22501 11.2782 9.23861 11.2799 9.25224 11.2816C9.25775 11.2823 9.26322 11.2835 9.26876 11.284C9.28794 11.2859 9.30716 11.2869 9.32642 11.2869C9.32646 11.2869 9.32646 11.2869 9.32646 11.2869C9.3265 11.2869 9.32654 11.2869 9.32654 11.2869C9.34482 11.2869 9.36314 11.286 9.38138 11.2843C9.38669 11.2838 9.39197 11.2828 9.39728 11.2821C9.41017 11.2806 9.42302 11.279 9.43583 11.2766C9.44255 11.2753 9.44915 11.2734 9.45579 11.272C9.46704 11.2694 9.4783 11.267 9.48943 11.2638C9.49681 11.2616 9.50404 11.2589 9.51134 11.2565C9.52154 11.2531 9.53173 11.2498 9.54177 11.2458C9.54951 11.2428 9.55704 11.2392 9.5647 11.2358C9.57404 11.2316 9.58337 11.2275 9.59255 11.2229C9.60044 11.2188 9.6081 11.2143 9.61583 11.2099C9.62443 11.205 9.63302 11.2002 9.64142 11.1948C9.64919 11.1899 9.65673 11.1844 9.66431 11.1791C9.67236 11.1734 9.68036 11.1677 9.68818 11.1615C9.69548 11.1558 9.70255 11.1497 9.70962 11.1435C9.7145 11.1393 9.71962 11.1355 9.72443 11.1311L12.1171 8.91696C12.3547 8.69715 12.369 8.32641 12.1492 8.08891Z" fill="#3F86A3"/>
</g>
<defs>
<clipPath id="clip0">
<rect width="20" height="20" fill="white"/>
</clipPath>
</defs>
</svg>
