<svg width="24" height="24" viewBox="0 0 24 24" fill="none" xmlns="http://www.w3.org/2000/svg">
<path fill-rule="evenodd" clip-rule="evenodd" d="M11.9999 1.09088C12.3774 1.09088 12.7221 1.31516 12.8892 1.66942L15.7231 7.67834L22.0607 8.64785C22.4341 8.70498 22.7442 8.97901 22.8606 9.35477C22.977 9.73052 22.8796 10.1429 22.6092 10.4185L18.0242 15.0925L19.1063 21.6956C19.1701 22.0851 19.0171 22.4786 18.7117 22.7109C18.4063 22.9431 18.0013 22.9737 17.6672 22.7898L11.9999 19.6704L6.33261 22.7898C5.99847 22.9737 5.59356 22.9431 5.28813 22.7109C4.98269 22.4786 4.82972 22.0851 4.89354 21.6956L5.97561 15.0925L1.39062 10.4185C1.12025 10.1429 1.02279 9.73052 1.1392 9.35477C1.25561 8.97901 1.5657 8.70498 1.93915 8.64785L8.27669 7.67834L11.1106 1.66942C11.2777 1.31516 11.6224 1.09088 11.9999 1.09088ZM11.9999 4.4739L9.82475 9.08599C9.68041 9.39204 9.40155 9.60426 9.07889 9.65362L4.21323 10.398L7.73321 13.9863C7.96713 14.2247 8.07391 14.5684 8.01871 14.9053L7.1882 19.9733L11.5383 17.579C11.8273 17.4199 12.1725 17.4199 12.4615 17.579L16.8116 19.9733L15.9811 14.9053C15.9259 14.5684 16.0327 14.2247 16.2666 13.9863L19.7866 10.398L14.9209 9.65362C14.5983 9.60426 14.3194 9.39204 14.1751 9.08599L11.9999 4.4739Z" fill="#BBC2CB"/>
</svg>
