<svg width="15" height="15" viewBox="0 0 15 15" fill="none" xmlns="http://www.w3.org/2000/svg">
<path fill-rule="evenodd" clip-rule="evenodd" d="M3.15957 7.875C3.21877 7.9773 3.29725 8.10767 3.39447 8.25822C3.64419 8.64488 4.01401 9.15907 4.49412 9.6712C5.46424 10.706 6.82057 11.6667 8.5 11.6667C10.1794 11.6667 11.5358 10.706 12.5059 9.6712C12.986 9.15907 13.3558 8.64488 13.6055 8.25822C13.7027 8.10767 13.7812 7.9773 13.8404 7.875C13.7812 7.7727 13.7027 7.64233 13.6055 7.49178C13.3558 7.10512 12.986 6.59093 12.5059 6.0788C11.5358 5.04401 10.1794 4.08333 8.5 4.08333C6.82057 4.08333 5.46424 5.04401 4.49412 6.0788C4.01401 6.59093 3.64419 7.10512 3.39447 7.49178C3.29725 7.64233 3.21877 7.7727 3.15957 7.875ZM14.4583 7.875C14.9428 7.63276 14.9427 7.63258 14.9426 7.63238L14.9417 7.63064L14.9399 7.62694L14.9337 7.61491C14.9286 7.60486 14.9213 7.5908 14.9118 7.57299C14.893 7.53738 14.8657 7.48675 14.8299 7.42324C14.7585 7.29631 14.6534 7.11749 14.5156 6.90405C14.2405 6.47821 13.8317 5.90907 13.2962 5.33787C12.2351 4.20599 10.6122 3 8.5 3C6.38777 3 4.76493 4.20599 3.70379 5.33787C3.16829 5.90907 2.75945 6.47821 2.48443 6.90405C2.34659 7.11749 2.24147 7.29631 2.17007 7.42324C2.13435 7.48675 2.107 7.53738 2.08816 7.57299C2.07873 7.5908 2.07143 7.60486 2.06627 7.61491L2.06012 7.62694L2.05825 7.63064L2.05762 7.6319C2.05752 7.6321 2.05719 7.63276 2.54167 7.875L2.05719 7.63276C1.98094 7.78525 1.98094 7.96475 2.05719 8.11724L2.54167 7.875C2.05719 8.11724 2.05709 8.11704 2.05719 8.11724L2.05825 8.11936L2.06012 8.12306L2.06627 8.1351C2.07143 8.14514 2.07873 8.15921 2.08816 8.17701C2.107 8.21262 2.13435 8.26325 2.17007 8.32676C2.24147 8.45369 2.34659 8.63251 2.48443 8.84595C2.75945 9.27179 3.16829 9.84093 3.70379 10.4121C4.76493 11.544 6.38777 12.75 8.5 12.75C10.6122 12.75 12.2351 11.544 13.2962 10.4121C13.8317 9.84093 14.2405 9.27179 14.5156 8.84595C14.6534 8.63251 14.7585 8.45369 14.8299 8.32676C14.8657 8.26325 14.893 8.21262 14.9118 8.17701C14.9213 8.15921 14.9286 8.14514 14.9337 8.1351L14.9399 8.12306L14.9417 8.11936L14.9424 8.1181C14.9425 8.1179 14.9428 8.11724 14.4583 7.875ZM14.4583 7.875L14.9428 8.11724C15.0191 7.96475 15.0189 7.78487 14.9426 7.63238L14.4583 7.875Z" fill="#919BA7"/>
<path fill-rule="evenodd" clip-rule="evenodd" d="M8.49968 6.79171C7.90137 6.79171 7.41634 7.27673 7.41634 7.87504C7.41634 8.47335 7.90137 8.95837 8.49968 8.95837C9.09798 8.95837 9.58301 8.47335 9.58301 7.87504C9.58301 7.27673 9.09798 6.79171 8.49968 6.79171ZM6.33301 7.87504C6.33301 6.67842 7.30306 5.70837 8.49968 5.70837C9.69629 5.70837 10.6663 6.67842 10.6663 7.87504C10.6663 9.07166 9.69629 10.0417 8.49968 10.0417C7.30306 10.0417 6.33301 9.07166 6.33301 7.87504Z" fill="#919BA7"/>
</svg>
