<svg width="22" height="22" viewBox="0 0 22 22" fill="none" xmlns="http://www.w3.org/2000/svg">
<path d="M10.449 20.3553L10.378 20.4261L10.449 20.4969L11.4258 21.4708L11.4964 21.5412L11.567 21.4708L17.5651 15.4904L17.5652 15.4903C19.1132 13.9431 20.0736 11.8072 20.0736 9.44847C20.0736 4.72714 16.2347 0.9 11.5001 0.9C6.76551 0.9 2.92661 4.72714 2.92661 9.44847C2.92661 11.8053 3.88685 13.9467 5.42952 15.4849C5.57738 15.6323 5.77328 15.7196 5.99409 15.7196C6.42973 15.7196 6.78304 15.3677 6.78304 14.9327C6.78304 14.7106 6.68675 14.51 6.54195 14.3656C5.28612 13.1135 4.50265 11.3668 4.50265 9.44847C4.50265 5.60283 7.64049 2.47382 11.4982 2.47382C15.356 2.47382 18.4957 5.60286 18.4957 9.44847C18.4957 11.3722 17.7105 13.1152 16.4434 14.3786L10.449 20.3553Z" fill="#919BA7" stroke="#919BA7" stroke-width="0.2"/>
<path d="M12.8537 11.1147V11.9368H16.1275V11.1147H15.4906L13.3235 5.65088L11.4962 8.84104L9.67076 5.65088L7.50179 11.1147H6.8667V11.9368H10.1406V11.1147H9.65034L10.1276 9.75199L11.4962 11.9997L12.8667 9.75199L13.3439 11.1147H12.8537Z" fill="#919BA7"/>
</svg>
