<svg width="22" height="22" viewBox="0 0 22 22" fill="none" xmlns="http://www.w3.org/2000/svg">
<g clip-path="url(#clip0)">
<path d="M1.24923 14.4096C1.615 14.3086 1.8297 13.9303 1.72879 13.5645C-0.140786 6.78926 5.66666 0.338603 12.618 1.51559C12.9919 1.57893 13.3467 1.327 13.41 0.952905C13.4734 0.57881 13.2214 0.224124 12.8473 0.160787C4.88193 -1.18805 -1.72588 6.21059 0.404211 13.93C0.505335 14.2966 0.884283 14.5103 1.24923 14.4096Z" fill="#B9C5D5"/>
<path d="M21.8399 9.15342C21.7766 8.77928 21.422 8.52744 21.0478 8.59073C20.6737 8.65407 20.4218 9.00871 20.4851 9.38285C21.6603 16.3226 15.2168 22.1426 8.43614 20.2716C8.07051 20.1706 7.69207 20.3853 7.59108 20.7511C7.49017 21.1169 7.70487 21.4953 8.07063 21.5962C15.7839 23.7245 23.1895 17.1234 21.8399 9.15342Z" fill="#B9C5D5"/>
<path d="M18.2155 7.56337C20.2991 7.56337 21.9943 5.86822 21.9943 3.78463C21.9943 1.70104 20.2991 0.00588989 18.2155 0.00588989C16.1319 0.00588989 14.4368 1.70104 14.4368 3.78463C14.4368 5.86822 16.1319 7.56337 18.2155 7.56337ZM18.2155 1.37998C19.5415 1.37998 20.6202 2.45872 20.6202 3.78463C20.6202 5.11054 19.5415 6.18928 18.2155 6.18928C16.8896 6.18928 15.8109 5.11054 15.8109 3.78463C15.8109 2.45872 16.8896 1.37998 18.2155 1.37998Z" fill="#B9C5D5"/>
<path d="M3.7875 15.1208C2.08273 15.1208 0.695801 16.5078 0.695801 18.2126C0.695801 19.9173 2.08273 21.3043 3.7875 21.3043C5.49227 21.3043 6.87919 19.9173 6.87919 18.2126C6.87919 16.5078 5.49227 15.1208 3.7875 15.1208ZM3.7875 19.9302C2.84041 19.9302 2.06989 19.1596 2.06989 18.2126C2.06989 17.2655 2.84041 16.4949 3.7875 16.4949C4.73459 16.4949 5.50511 17.2655 5.50511 18.2126C5.50511 19.1596 4.73459 19.9302 3.7875 19.9302Z" fill="#B9C5D5"/>
<path d="M8.25324 15.1208C8.25324 15.5003 8.56086 15.8079 8.94028 15.8079C9.3197 15.8079 9.62733 15.5003 9.62733 15.1208V14.0903H11.6885C12.0679 14.0903 12.3755 13.7826 12.3755 13.4032C12.3755 13.0238 12.0679 12.7162 11.6885 12.7162H9.62733V11.6856H11.6885C13.2038 11.6856 14.4366 10.4528 14.4366 8.93744C14.4366 7.42208 13.2038 6.18927 11.6885 6.18927H8.94028C8.56086 6.18927 8.25324 6.49689 8.25324 6.87631V12.7162H7.56619C7.18677 12.7162 6.87915 13.0238 6.87915 13.4032C6.87915 13.7826 7.18677 14.0903 7.56619 14.0903H8.25324V15.1208ZM13.0625 8.93744C13.0625 9.69513 12.4461 10.3115 11.6885 10.3115H9.62733V7.56336H11.6885C12.4461 7.56336 13.0625 8.17976 13.0625 8.93744Z" fill="#B9C5D5"/>
</g>
<defs>
<clipPath id="clip0">
<rect width="22" height="22" fill="white"/>
</clipPath>
</defs>
</svg>
